{"glyphs":{" ":{"ha":417,"x_min":0,"x_max":0,"o":""}," ":{"ha":417,"x_min":0,"x_max":0,"o":"z "},"‌":{"ha":0,"x_min":0,"x_max":0,"o":""},"ᬀ":{"ha":1039,"x_min":97,"x_max":938,"o":"m 517 1167 q 638 1339 638 1167 q 603 1387 638 1358 q 544 1415 568 1415 q 449 1382 493 1415 q 406 1299 406 1349 q 440 1210 406 1254 q 517 1167 474 1167 m 386 979 q 186 1106 275 1006 q 97 1308 97 1207 q 581 1799 97 1799 q 836 1651 729 1799 q 938 1363 938 1517 q 867 1124 938 1235 q 675 979 763 1010 l 654 1022 q 863 1301 863 1150 q 770 1527 863 1450 q 528 1604 678 1604 q 282 1533 379 1604 q 171 1311 171 1453 q 240 1146 171 1218 q 379 1029 308 1074 q 386 979 372 979 m 353 1294 q 366 1361 353 1329 q 403 1416 379 1393 q 457 1453 426 1439 q 524 1467 488 1467 q 590 1453 558 1467 q 644 1416 621 1439 q 681 1361 668 1393 q 694 1294 694 1329 q 681 1228 694 1260 q 644 1174 668 1197 q 590 1138 621 1151 q 524 1124 558 1124 q 457 1138 488 1124 q 403 1174 426 1151 q 366 1228 379 1197 q 353 1294 353 1260 z "},"ᬁ":{"ha":1057,"x_min":17,"x_max":1042,"o":"m 304 1189 q 533 1151 376 1151 q 747 1192 664 1151 q 690 1392 742 1311 q 515 1488 626 1488 q 356 1383 414 1488 q 304 1189 310 1303 m 104 1201 q 17 1494 22 1335 l 63 1500 q 120 1346 72 1433 q 219 1226 168 1258 l 246 1233 q 499 1567 286 1538 l 508 1799 l 550 1799 l 560 1567 q 800 1221 794 1529 q 826 1215 815 1226 q 992 1500 951 1282 l 1042 1506 q 892 1133 1042 1282 q 518 983 742 983 q 104 1201 254 983 z "},"ᬂ":{"ha":701,"x_min":0,"x_max":696,"o":"m 667 979 q 456 1331 599 1129 q 175 1581 269 1593 q 39 1408 126 1549 l 0 1421 q 165 1796 61 1624 l 189 1799 q 504 1454 342 1738 q 696 1006 640 1214 l 667 979 z "},"ᬃ":{"ha":890,"x_min":15,"x_max":890,"o":"m 15 1799 l 133 1765 q 383 1249 203 1447 q 890 1006 588 1025 l 881 979 q 290 1218 539 979 q 15 1799 42 1457 z "},"ᬄ":{"ha":543,"x_min":7,"x_max":518,"o":"m 299 -1700 q 178 -1229 178 -1489 q 305 -676 178 -1036 q 432 -126 432 -315 q 335 153 432 61 q 53 254 246 231 l 89 343 q 197 326 171 326 q 417 556 417 326 q 356 644 417 608 q 236 679 294 679 q 96 618 132 679 q 63 461 69 576 l 26 457 q 7 563 7 507 q 79 767 7 676 q 261 857 151 857 q 508 596 508 857 q 261 276 508 349 q 518 -224 518 160 q 392 -810 518 -426 q 265 -1390 265 -1193 q 324 -1678 265 -1562 l 299 -1700 z "},"ᬅ":{"ha":1821,"x_min":136,"x_max":1728,"o":"m 1486 404 l 1568 357 l 1572 447 q 1468 675 1571 675 l 1461 668 q 1486 404 1486 596 m 831 206 l 843 224 q 1136 133 924 133 q 1425 306 1425 133 q 1419 338 1425 319 q 1304 361 1357 361 l 1292 350 q 1263 231 1275 308 l 1229 231 q 1217 479 1217 338 q 1438 426 1338 479 q 1332 853 1438 697 q 1631 497 1631 853 q 1619 322 1631 440 l 1728 214 l 1728 160 q 1619 240 1715 172 l 1619 0 l 1579 0 l 1568 263 q 1478 308 1519 301 q 1389 74 1419 113 q 1165 -21 1321 -21 q 831 206 911 -21 m 494 -24 q 226 121 329 -24 q 136 419 136 247 q 258 779 136 636 q 592 922 381 922 q 1074 600 904 922 l 1033 586 q 601 871 875 871 q 294 738 400 871 q 188 400 188 606 q 475 146 188 146 q 611 165 540 146 q 710 240 710 196 q 543 365 710 365 q 478 362 517 365 q 429 358 439 358 l 435 410 q 582 422 550 417 q 676 513 676 443 q 565 603 676 603 q 400 525 453 603 l 374 543 q 442 675 414 642 q 568 733 488 733 q 693 692 640 733 q 746 579 746 651 q 647 407 746 456 l 643 394 q 771 257 771 344 q 494 -24 771 -24 z "},"ᬆ":{"ha":2553,"x_min":147,"x_max":2424,"o":"m 492 -24 q 236 125 335 -24 q 147 419 147 257 q 284 765 147 621 q 624 908 421 908 q 906 819 775 908 q 1092 588 1036 731 l 1046 582 q 626 863 935 863 q 321 740 439 863 q 203 429 203 617 q 514 142 203 142 q 725 271 725 142 q 613 353 725 336 q 451 357 581 357 l 458 403 q 696 501 679 403 q 567 601 672 601 q 425 525 471 601 l 401 532 q 463 667 408 607 q 593 726 517 726 q 709 687 656 726 q 763 585 763 647 q 660 386 763 456 q 796 171 796 306 q 686 19 796 75 q 492 -24 600 -24 m 1158 -24 q 839 164 993 -24 q 874 222 849 194 q 1110 125 971 125 q 1439 281 1439 125 q 1304 340 1381 324 q 1239 244 1261 293 l 1208 247 q 1242 475 1208 432 q 1449 376 1300 468 q 1942 856 1467 856 q 2288 726 2153 856 q 2424 389 2424 597 q 2325 108 2424 231 q 2067 -24 2224 -24 q 1938 -4 2024 -24 l 1935 65 q 2057 39 2014 39 q 2292 142 2206 39 q 2378 392 2378 244 q 2214 614 2378 542 q 1915 671 2085 671 q 1621 611 1714 671 q 1492 346 1503 536 q 1704 39 1585 264 l 1682 0 q 1588 135 1639 65 q 1486 244 1538 204 q 1158 -24 1424 -24 z "},"ᬇ":{"ha":1518,"x_min":14,"x_max":1435,"o":"m 175 375 q 185 490 175 414 q 196 606 196 567 q 150 683 196 683 q 58 564 58 683 q 72 453 58 528 l 38 450 q 14 603 14 518 q 133 833 14 778 q 258 678 258 829 q 240 533 258 629 q 222 393 222 438 q 247 193 222 289 q 357 58 286 58 q 400 68 361 58 q 318 354 318 204 q 653 850 318 850 q 789 749 731 850 q 861 581 808 717 q 929 724 893 653 q 1139 853 1007 853 q 1435 471 1435 853 l 1435 -26 l 1393 -26 q 1399 121 1393 22 q 1406 268 1406 219 q 1131 674 1406 674 q 867 503 942 674 l 858 499 q 635 665 793 665 q 414 554 474 665 q 364 297 364 471 q 416 129 364 226 q 526 -10 468 32 q 453 -24 482 -24 q 175 375 175 -24 m 867 -636 q 588 -467 744 -636 l 608 -446 q 879 -539 783 -539 q 1007 -451 1007 -539 q 835 -363 1007 -415 q 663 -228 663 -311 q 689 -153 663 -204 q 815 -114 757 -114 q 983 -176 893 -114 l 981 -204 q 822 -165 883 -165 q 762 -183 796 -165 q 728 -225 728 -201 q 813 -311 728 -290 q 978 -347 897 -332 q 1065 -478 1065 -383 q 867 -636 1065 -636 z "},"ᬈ":{"ha":2557,"x_min":64,"x_max":2543,"o":"m 225 375 q 235 490 225 414 q 246 606 246 567 q 200 683 246 683 q 108 564 108 683 q 122 453 108 528 l 88 450 q 64 603 64 518 q 183 833 64 778 q 308 678 308 829 q 290 533 308 629 q 272 393 272 438 q 297 193 272 289 q 407 58 336 58 q 450 68 411 58 q 368 354 368 204 q 703 850 368 850 q 839 749 781 850 q 911 581 858 717 q 979 724 943 653 q 1189 853 1057 853 q 1485 471 1485 853 l 1485 -26 l 1443 -26 q 1449 121 1443 22 q 1456 268 1456 219 q 1181 674 1456 674 q 917 503 992 674 l 908 499 q 685 665 843 665 q 464 554 524 665 q 414 297 414 471 q 466 129 414 226 q 576 -10 518 32 q 503 -24 532 -24 q 225 375 225 -24 m 917 -636 q 638 -467 794 -636 l 658 -446 q 929 -539 833 -539 q 1057 -451 1057 -539 q 885 -363 1057 -415 q 713 -228 713 -311 q 739 -153 713 -204 q 865 -114 807 -114 q 1033 -176 943 -114 l 1031 -204 q 872 -165 933 -165 q 812 -183 846 -165 q 778 -225 778 -201 q 863 -311 778 -290 q 1028 -347 947 -332 q 1115 -478 1115 -383 q 917 -636 1115 -636 m 2086 101 q 2178 203 2086 203 q 2253 150 2207 203 q 2342 97 2299 97 q 2464 174 2419 97 q 2504 319 2504 235 q 2336 606 2504 507 q 1999 686 2201 686 q 1628 607 1806 686 l 1621 621 q 2058 853 1772 853 q 2408 704 2272 853 q 2543 339 2543 556 q 2461 90 2543 196 q 2232 -19 2369 -19 q 2086 101 2086 -19 z "},"ᬉ":{"ha":1528,"x_min":50,"x_max":1481,"o":"m 1408 -1699 l 1415 -1604 q 1285 -1206 1432 -1350 q 875 -1062 1139 -1062 q 406 -1476 406 -1062 q 442 -1658 406 -1551 q 50 -1160 50 -1585 q 311 -544 50 -815 q 800 -133 556 -339 q 1060 371 1060 104 q 987 586 1060 501 q 786 671 914 671 q 601 615 672 671 q 519 443 519 554 q 558 242 519 436 l 536 228 q 389 375 451 286 q 324 564 321 475 l 331 710 l 363 717 q 490 329 363 414 q 471 496 471 414 q 547 751 471 644 q 767 857 624 857 q 1023 728 921 857 q 1125 443 1125 600 q 861 -278 1125 36 q 376 -721 846 -293 q 113 -1186 113 -956 q 174 -1411 113 -1314 q 357 -1551 242 -1519 q 347 -1428 347 -1489 q 497 -1032 347 -1183 q 894 -881 646 -881 q 1340 -1108 1171 -881 q 1481 -1597 1481 -1292 l 1474 -1699 l 1408 -1699 z "},"ᬊ":{"ha":2275,"x_min":86,"x_max":2242,"o":"m 1444 -1699 l 1451 -1604 q 1322 -1206 1468 -1350 q 911 -1062 1175 -1062 q 442 -1476 442 -1062 q 478 -1658 442 -1551 q 86 -1160 86 -1585 q 347 -544 86 -815 q 836 -133 592 -339 q 1096 371 1096 104 q 1023 586 1096 501 q 822 671 950 671 q 638 615 708 671 q 556 443 556 554 q 594 242 556 436 l 572 228 q 425 375 488 286 q 360 564 357 475 l 367 710 l 399 717 q 526 329 399 414 q 507 496 507 414 q 583 751 507 644 q 803 857 660 857 q 1059 728 957 857 q 1161 443 1161 600 q 897 -278 1161 36 q 413 -721 882 -293 q 149 -1186 149 -956 q 210 -1411 149 -1314 q 393 -1551 278 -1519 q 383 -1428 383 -1489 q 533 -1032 383 -1183 q 931 -881 682 -881 q 1376 -1108 1207 -881 q 1517 -1597 1517 -1292 l 1510 -1699 l 1444 -1699 m 1785 106 q 1876 207 1785 207 q 1951 154 1906 207 q 2040 101 1997 101 q 2163 178 2118 101 q 2203 324 2203 239 q 2035 610 2203 511 q 1697 690 1900 690 q 1326 611 1504 690 l 1319 625 q 1757 857 1471 857 q 2106 708 1971 857 q 2242 343 2242 560 q 2160 94 2242 200 q 1931 -15 2068 -15 q 1785 106 1785 -15 z "},"ᬋ":{"ha":1247,"x_min":32,"x_max":1186,"o":"m 608 -643 q 322 -469 475 -643 l 344 -447 q 619 -542 521 -542 q 743 -454 743 -542 q 544 -362 717 -408 q 397 -229 397 -324 q 550 -115 397 -115 q 719 -176 629 -115 l 717 -206 q 560 -167 619 -167 q 463 -225 463 -167 q 547 -313 463 -290 q 714 -356 632 -336 q 801 -479 801 -389 q 744 -599 801 -554 q 608 -643 688 -643 m 544 -24 q 285 101 390 -24 q 179 378 179 225 q 195 512 179 424 q 211 644 211 600 q 126 704 211 704 q 78 586 78 671 q 97 433 78 579 l 58 429 q 32 615 32 596 q 211 854 32 854 q 274 726 274 854 q 249 570 274 675 q 224 410 224 465 q 596 165 224 165 q 879 208 804 165 q 981 465 981 269 q 940 634 981 525 q 899 799 899 743 q 983 857 899 857 q 1140 714 1079 857 q 1186 492 1186 600 l 1186 -19 l 1140 -17 q 1150 235 1150 238 q 988 675 1150 671 l 983 664 q 1026 378 1026 489 q 544 -24 1026 -24 z "},"ᬌ":{"ha":2304,"x_min":90,"x_max":2299,"o":"m 667 -643 q 381 -469 533 -643 l 403 -447 q 678 -542 579 -542 q 801 -454 801 -542 q 603 -362 775 -408 q 456 -229 456 -324 q 608 -115 456 -115 q 778 -176 688 -115 l 775 -206 q 618 -167 678 -167 q 521 -225 521 -167 q 606 -313 521 -290 q 772 -356 690 -336 q 860 -479 860 -389 q 803 -599 860 -554 q 667 -643 746 -643 m 603 -24 q 343 101 449 -24 q 238 378 238 225 q 253 512 238 424 q 269 644 269 600 q 185 704 269 704 q 136 586 136 671 q 156 433 136 579 l 117 429 q 90 615 90 596 q 269 854 90 854 q 332 726 332 854 q 307 570 332 675 q 282 410 282 465 q 654 165 282 165 q 938 208 863 165 q 1039 465 1039 269 q 998 634 1039 525 q 957 799 957 743 q 1042 857 957 857 q 1199 714 1138 857 q 1244 492 1244 600 l 1244 -19 l 1199 -17 q 1208 235 1208 238 q 1046 675 1208 671 l 1042 664 q 1085 378 1085 489 q 603 -24 1085 -24 m 1842 106 q 1933 207 1842 207 q 2008 154 1963 207 q 2097 101 2054 101 q 2219 178 2175 101 q 2260 324 2260 239 q 2092 610 2260 511 q 1754 690 1957 690 q 1383 611 1561 690 l 1376 625 q 1814 857 1528 857 q 2163 708 2028 857 q 2299 343 2299 560 q 2217 94 2299 200 q 1988 -15 2125 -15 q 1842 106 1842 -15 z "},"ᬍ":{"ha":1643,"x_min":22,"x_max":1622,"o":"m 890 -1486 q 1308 -575 1168 -1003 q 873 -447 1156 -575 q 489 -319 590 -319 q 310 -372 394 -319 q 211 -519 211 -431 q 388 -872 211 -732 q 714 -1097 551 -986 q 890 -1486 890 -1247 m 714 -1665 q 849 -1394 849 -1561 q 672 -1126 849 -1257 q 339 -894 506 -1008 q 163 -558 163 -744 q 319 -287 163 -394 q 629 -193 457 -193 q 996 -333 767 -193 q 1322 -490 1238 -481 q 1403 244 1403 -206 q 1122 667 1403 667 q 868 496 933 667 q 617 663 786 663 q 428 573 493 663 q 363 353 363 483 q 518 -22 363 183 q 244 63 322 -22 q 182 271 182 128 q 192 433 182 319 q 201 604 201 546 q 176 681 201 653 l 165 686 q 71 571 71 686 q 74 510 71 549 q 78 457 78 471 l 35 450 q 22 594 22 496 q 51 751 22 679 q 160 846 88 846 q 264 650 264 846 q 242 497 264 597 q 221 343 221 396 q 385 63 221 63 l 392 72 q 317 369 317 239 q 385 682 317 546 q 626 856 469 856 q 868 588 832 856 q 992 790 950 751 q 1221 856 1064 856 q 1410 624 1349 856 q 1453 288 1453 467 q 1383 -500 1453 0 q 1600 -428 1501 -500 l 1622 -454 q 1361 -571 1554 -522 q 1122 -1162 1217 -964 q 776 -1694 969 -1482 l 714 -1665 z "},"ᬎ":{"ha":1939,"x_min":36,"x_max":1911,"o":"m 904 -1486 q 1322 -575 1182 -1003 q 887 -447 1169 -575 q 503 -319 604 -319 q 324 -372 408 -319 q 225 -519 225 -431 q 401 -872 225 -732 q 728 -1097 565 -986 q 904 -1486 904 -1247 m 1375 -571 q 1136 -1162 1231 -964 q 790 -1694 983 -1482 l 728 -1665 q 863 -1394 863 -1561 q 686 -1126 863 -1257 q 353 -894 519 -1008 q 176 -558 176 -744 q 333 -287 176 -394 q 643 -193 471 -193 q 1010 -333 781 -193 q 1336 -490 1251 -481 q 1417 244 1417 -206 q 1136 667 1417 667 q 882 496 947 667 q 631 663 800 663 q 442 573 507 663 q 376 353 376 483 q 532 -22 376 183 q 258 63 336 -22 q 196 271 196 128 q 206 433 196 319 q 215 604 215 546 q 190 681 215 653 l 179 686 q 85 571 85 686 q 88 510 85 549 q 92 457 92 471 l 49 450 q 36 594 36 496 q 65 751 36 679 q 174 846 101 846 q 278 650 278 846 q 256 497 278 597 q 235 343 235 396 q 399 63 235 63 l 406 72 q 331 369 331 239 q 399 682 331 546 q 640 856 483 856 q 882 588 846 856 q 1006 790 964 751 q 1235 856 1078 856 q 1424 624 1363 856 q 1467 288 1467 467 q 1397 -500 1467 0 q 1533 -432 1475 -501 q 1674 -372 1608 -372 q 1865 -625 1865 -372 q 1713 -803 1865 -739 q 1911 -1106 1911 -894 q 1651 -1378 1911 -1378 q 1508 -1283 1567 -1378 q 1460 -1111 1460 -1203 q 1469 -992 1460 -1108 l 1479 -985 l 1508 -989 q 1678 -1212 1508 -1212 q 1819 -1047 1819 -1212 q 1521 -836 1819 -836 l 1515 -781 q 1771 -635 1771 -781 q 1628 -506 1769 -450 q 1375 -571 1488 -561 z "},"ᬏ":{"ha":1240,"x_min":74,"x_max":1236,"o":"m 1207 -24 q 996 196 1156 119 q 692 264 860 264 q 332 42 400 264 q 144 151 222 42 q 74 365 74 249 q 290 738 74 604 q 731 857 472 847 l 731 815 q 329 708 497 806 q 122 375 122 589 q 171 196 122 278 q 313 96 222 100 q 725 429 394 429 q 1074 307 922 429 q 1236 -21 1236 174 l 1207 -24 z "},"ᬐ":{"ha":2293,"x_min":43,"x_max":2194,"o":"m 1875 929 q 1825 1072 1871 1008 q 1711 1165 1754 1165 q 1635 1144 1672 1165 q 1622 1125 1624 1136 q 1621 1100 1621 1114 q 1636 1056 1625 1074 q 1875 929 1689 936 m 1611 -1751 q 1339 -1642 1425 -1751 q 1235 -1439 1285 -1543 q 1060 -1329 1176 -1329 q 799 -1439 869 -1329 q 715 -1639 760 -1539 q 479 -1749 653 -1749 q 124 -1506 219 -1749 q 63 -1042 63 -1351 q 424 -510 63 -664 q 1089 -296 756 -403 q 1447 276 1447 -129 q 1176 675 1447 675 q 915 496 999 675 l 906 496 q 665 665 835 665 q 436 553 493 665 q 399 286 399 479 q 563 -19 399 110 l 433 -19 q 203 339 203 -31 q 213 513 203 408 q 225 656 222 636 l 219 679 l 188 694 l 150 689 q 99 460 86 629 l 72 453 q 43 636 43 542 q 69 760 43 689 q 150 846 103 846 q 263 819 210 846 q 286 715 286 767 q 266 529 286 653 q 246 343 246 406 q 408 57 246 60 l 419 67 q 343 376 343 236 q 403 675 343 539 q 622 851 479 851 q 820 799 767 851 q 906 596 874 746 l 919 596 q 1251 856 968 856 q 1458 653 1394 856 q 1506 326 1506 515 q 1142 -412 1506 -194 q 469 -676 806 -546 q 106 -1196 106 -833 q 479 -1572 106 -1572 q 750 -1462 685 -1572 q 815 -1256 782 -1358 q 1026 -1146 861 -1146 q 1219 -1253 1172 -1146 q 1292 -1453 1256 -1351 q 1575 -1560 1365 -1560 q 1871 -1315 1801 -1560 q 1907 -889 1907 -1196 q 1896 794 1907 -606 q 1542 1065 1542 829 q 1557 1146 1542 1075 l 1583 1185 q 1685 1222 1635 1215 q 1929 942 1861 1222 q 2092 1053 2044 972 q 2142 1257 2128 1113 l 2190 1229 q 2194 1149 2194 1118 q 2124 934 2194 1033 q 1944 806 2054 835 q 1958 -1165 1958 -71 q 1611 -1751 1958 -1751 z "},"ᬑ":{"ha":1733,"x_min":106,"x_max":1592,"o":"m 1414 -1700 q 1481 -1444 1481 -1556 q 913 -1057 1481 -1057 q 601 -1165 722 -1057 q 479 -1461 479 -1274 q 525 -1676 479 -1539 q 214 -1464 329 -1628 q 106 -1103 106 -1310 q 479 -500 106 -660 q 1175 -293 828 -397 q 1549 282 1549 -142 q 1276 675 1549 675 q 1021 501 1126 675 q 939 606 956 590 q 824 658 886 658 q 571 560 638 658 q 519 285 519 482 q 657 -21 519 111 l 653 -24 q 394 58 467 -24 q 335 268 335 128 q 343 417 335 314 q 351 574 351 521 q 306 692 351 656 q 217 560 217 694 q 224 458 217 540 l 190 451 q 171 596 171 544 q 325 846 171 846 q 373 810 339 846 q 407 761 407 774 q 389 542 407 689 q 371 321 371 396 q 467 65 371 160 l 513 58 l 539 65 q 463 383 463 246 q 522 668 463 521 q 713 849 597 849 q 1024 581 978 849 q 1264 856 1103 856 q 1592 381 1592 856 q 1218 -424 1592 -204 q 519 -643 869 -536 q 144 -1117 144 -765 q 224 -1394 144 -1271 q 447 -1575 308 -1533 l 440 -1461 q 568 -1051 426 -1218 q 956 -883 710 -883 q 1339 -1021 1165 -883 q 1526 -1372 1526 -1168 q 1438 -1710 1526 -1582 l 1414 -1700 z "},"ᬒ":{"ha":2601,"x_min":138,"x_max":2585,"o":"m 1433 -1654 q 1500 -1401 1500 -1511 q 938 -1018 1500 -1018 q 628 -1124 749 -1018 q 508 -1417 508 -1231 q 554 -1631 508 -1472 q 248 -1425 358 -1583 q 138 -1064 138 -1267 q 508 -465 138 -625 q 1197 -261 851 -364 q 1568 308 1568 -110 q 1296 699 1568 699 q 1046 526 1147 699 q 963 629 1001 578 q 849 682 911 682 q 600 585 664 682 q 547 311 547 506 q 683 10 547 139 l 679 7 q 424 90 496 7 q 365 299 365 156 q 374 445 365 344 q 382 599 382 546 q 336 715 382 679 q 249 585 249 718 q 254 483 249 617 l 221 476 q 203 621 203 567 q 356 867 203 867 q 436 782 394 867 q 419 566 436 711 q 401 347 401 421 q 496 93 401 189 l 540 88 l 567 93 q 493 410 493 272 q 550 690 493 549 q 739 871 621 871 q 1049 603 1004 871 q 1285 875 1125 875 q 1610 407 1610 875 q 1239 -390 1610 -175 q 547 -611 894 -501 q 176 -1075 176 -728 q 256 -1355 176 -1225 q 475 -1529 336 -1485 l 468 -1417 q 597 -1011 457 -1176 q 979 -846 736 -846 q 1358 -982 1186 -846 q 1543 -1329 1543 -1128 q 1457 -1664 1543 -1537 l 1433 -1654 m 2128 124 q 2219 225 2128 225 q 2294 172 2249 225 q 2383 119 2340 119 q 2506 196 2461 119 q 2546 342 2546 257 q 2378 628 2546 529 q 2040 708 2243 708 q 1669 629 1847 708 q 1667 638 1669 633 q 1663 643 1664 643 q 2100 875 1814 875 q 2449 726 2314 875 q 2585 361 2585 578 q 2503 113 2585 218 q 2274 3 2411 3 q 2128 124 2128 3 z "},"ᬓ":{"ha":1886,"x_min":146,"x_max":1713,"o":"m 263 81 q 328 38 263 38 q 399 292 399 38 q 263 81 263 239 m 921 32 q 1061 90 1061 32 q 867 265 1061 193 q 574 321 710 321 q 714 129 600 226 q 921 32 828 32 m 1431 -24 q 1343 74 1356 -24 q 1343 226 1343 64 l 1343 331 q 1246 625 1343 554 q 935 683 1168 683 q 551 499 551 683 l 558 486 q 921 408 749 482 q 1139 149 1139 314 q 925 -21 1139 -21 q 686 90 808 -21 q 532 317 564 200 q 439 301 467 317 l 435 200 q 314 -21 444 -21 q 211 125 211 -21 q 408 440 211 326 q 396 603 408 557 q 282 697 369 697 q 194 576 226 697 q 172 411 172 489 l 146 414 q 324 849 146 849 q 438 457 438 849 q 519 472 486 469 q 944 856 532 856 q 1321 693 1232 856 q 1372 268 1372 589 q 1438 76 1372 81 l 1456 79 l 1468 85 l 1479 93 q 1501 326 1501 168 q 1411 849 1501 618 q 1671 707 1606 849 q 1713 392 1713 613 l 1713 -21 l 1667 -21 q 1672 122 1667 28 q 1676 263 1676 217 q 1506 683 1676 674 q 1525 512 1506 625 q 1544 340 1544 399 l 1544 217 q 1431 -24 1544 -24 z "},"ᬔ":{"ha":2142,"x_min":143,"x_max":2129,"o":"m 306 42 q 394 274 394 42 q 331 238 385 271 l 333 243 q 265 93 265 185 q 306 42 265 42 m 924 19 q 1051 90 1043 19 q 847 256 1028 194 q 569 299 708 299 q 709 108 599 197 q 924 19 819 19 m 2100 -53 q 1933 39 2058 39 q 1749 11 1872 39 q 1561 -17 1625 -17 q 1358 83 1396 -17 q 1340 331 1340 129 q 1208 610 1340 532 q 889 672 1106 672 q 557 474 557 672 q 924 400 764 474 q 1135 118 1135 299 q 1081 15 1135 54 q 960 -24 1028 -24 q 684 70 811 -24 q 525 304 557 164 q 440 293 486 304 q 318 -19 440 -19 q 201 171 201 -19 q 404 429 201 258 l 404 482 q 299 690 404 653 q 199 571 224 665 q 171 403 186 529 l 143 397 l 143 488 q 171 707 143 607 q 306 846 217 846 q 450 449 450 846 l 508 464 q 633 767 528 678 q 954 856 738 856 q 1318 675 1226 856 q 1381 335 1361 588 q 1474 154 1393 154 q 1645 169 1532 154 q 1814 185 1758 185 q 2010 136 1946 185 q 2129 -42 2075 88 l 2100 -53 z "},"ᬕ":{"ha":1801,"x_min":108,"x_max":1629,"o":"m 1065 -21 q 1261 372 1261 194 q 878 671 1261 671 q 458 378 458 671 q 619 -14 458 131 q 519 -21 554 -21 q 271 372 271 -21 q 283 496 271 421 q 294 611 294 571 q 231 696 294 681 q 150 561 150 664 q 161 444 150 571 l 124 444 q 108 597 108 571 q 268 857 108 857 q 353 719 353 857 q 335 542 353 654 q 318 368 318 431 q 458 67 318 67 l 482 72 q 418 375 418 221 q 881 857 418 857 q 1200 727 1081 857 q 1319 403 1319 597 q 1207 69 1319 267 q 1407 492 1407 69 q 1363 857 1407 643 q 1629 371 1629 857 l 1629 -24 l 1581 -24 q 1592 214 1592 57 q 1453 661 1592 661 l 1439 658 q 1444 545 1439 619 q 1450 435 1450 471 q 1385 90 1450 175 q 1065 -21 1311 -8 z "},"ᬖ":{"ha":2046,"x_min":133,"x_max":1882,"o":"m 332 3 q 283 179 283 74 q 301 381 283 247 q 319 583 319 514 q 301 678 319 651 q 218 700 283 704 q 165 574 165 664 q 189 465 165 514 l 160 465 q 133 629 133 569 q 257 854 133 854 q 356 675 356 854 q 339 441 356 596 q 322 208 322 286 q 329 126 322 179 q 385 83 346 110 l 421 97 q 460 238 450 153 q 463 397 467 299 q 456 544 456 531 q 526 782 456 710 q 763 854 596 854 q 649 453 649 589 q 910 172 649 172 q 1016 290 975 172 q 1147 407 1057 407 q 1269 288 1232 407 q 1369 169 1307 169 q 1617 417 1617 169 q 1553 604 1617 521 q 1396 688 1490 688 q 1321 675 1360 688 q 1396 811 1321 760 q 1549 857 1461 857 q 1882 257 1882 857 q 1878 118 1882 211 q 1875 -24 1875 25 l 1829 -24 q 1833 101 1829 19 q 1836 221 1836 182 q 1551 707 1836 707 q 1526 703 1542 707 q 1503 700 1510 700 l 1497 694 q 1686 306 1686 593 q 1631 94 1686 192 q 1457 -21 1565 -21 q 1297 110 1363 -21 q 1144 240 1232 240 q 998 110 1050 240 q 857 -21 946 -21 q 656 110 726 -21 q 596 361 596 218 q 658 710 596 499 q 492 508 521 710 q 482 189 489 494 q 450 -1 479 49 l 392 -24 l 332 3 z "},"ᬗ":{"ha":1740,"x_min":104,"x_max":1569,"o":"m 1524 -19 q 1529 124 1524 29 q 1535 260 1535 218 q 1249 686 1535 686 q 1100 649 1151 686 q 986 515 1049 611 l 975 511 q 768 682 911 682 q 457 372 457 682 q 621 -18 457 172 q 588 -21 613 -18 q 550 -24 563 -24 q 264 378 264 -24 q 275 503 264 422 q 286 625 286 585 q 268 692 286 668 q 236 697 246 697 q 151 560 151 697 q 158 458 151 525 l 125 460 q 104 611 104 533 q 140 765 104 701 q 263 853 179 853 q 361 735 361 853 q 340 542 361 672 q 318 350 318 413 q 497 61 318 61 q 413 390 413 214 q 772 853 413 853 q 911 765 858 853 q 975 601 936 724 l 986 601 q 1097 785 1044 731 q 1293 857 1171 857 q 1569 378 1569 857 l 1569 -19 l 1524 -19 z "},"ᬘ":{"ha":1481,"x_min":126,"x_max":1317,"o":"m 201 44 q 388 279 299 71 q 369 283 382 279 q 351 286 356 286 q 229 237 283 286 q 175 119 175 188 q 201 44 175 63 m 126 54 q 450 424 126 424 q 492 601 492 574 q 397 714 492 714 q 179 429 290 714 l 168 429 l 150 432 q 465 857 247 857 q 560 707 560 857 q 494 424 560 639 l 499 417 q 694 260 554 393 q 908 149 814 149 q 1040 203 992 149 q 1088 339 1088 257 q 1016 576 1088 485 q 811 667 944 667 q 751 664 782 667 q 994 857 785 857 q 1244 719 1161 857 q 1317 426 1317 601 l 1317 -24 l 1278 -24 q 1281 99 1278 18 q 1283 218 1283 179 q 1004 697 1283 697 q 961 688 992 697 q 1138 253 1138 560 q 1046 69 1138 161 q 861 -24 954 -24 q 635 97 751 -24 q 436 263 499 240 q 213 -24 293 -24 q 126 54 126 -24 z "},"ᬙ":{"ha":1782,"x_min":150,"x_max":1611,"o":"m 1389 492 q 1344 857 1389 643 q 1611 371 1611 857 l 1611 -24 l 1563 -24 q 1574 214 1574 57 q 1435 661 1574 661 l 1421 658 q 1426 546 1421 619 q 1433 415 1432 472 q 1107 -15 1439 -15 q 831 164 867 -15 q 807 501 821 332 q 494 681 763 681 q 261 589 326 681 q 208 336 208 511 l 208 213 q 246 124 208 167 q 329 82 283 82 q 463 257 463 82 q 450 397 463 303 l 479 404 q 504 228 504 288 q 469 65 504 133 q 342 -22 426 -22 q 186 121 235 -22 q 150 358 150 222 q 544 857 150 857 q 811 749 743 857 q 857 515 857 681 q 857 484 857 506 q 857 450 857 463 q 889 244 857 307 q 1090 157 940 157 q 1389 492 1388 157 z "},"ᬚ":{"ha":1460,"x_min":92,"x_max":1315,"o":"m 454 -18 q 297 126 353 -21 q 254 361 254 238 q 263 490 254 403 q 271 618 271 576 q 222 700 271 700 q 135 576 135 700 q 140 500 135 547 q 144 439 144 453 l 118 433 q 92 599 92 543 q 265 857 92 857 q 333 707 333 857 q 314 531 333 649 q 294 354 294 413 q 483 61 294 61 q 394 383 394 207 q 907 857 394 857 q 1178 785 1071 857 q 1306 547 1306 700 q 1142 315 1306 390 l 1139 306 q 1279 172 1240 257 q 1315 -24 1306 107 l 1279 -24 q 1139 247 1276 185 q 819 283 1061 283 l 836 328 q 832 328 836 328 q 1088 349 1067 342 q 1260 501 1260 381 q 933 681 1260 681 l 810 681 q 539 622 621 681 q 438 374 438 554 q 610 0 438 163 l 558 -12 l 454 -18 z "},"ᬛ":{"ha":2272,"x_min":51,"x_max":2185,"o":"m 1899 928 q 1863 1024 1886 981 q 1812 1099 1839 1068 q 1759 1148 1785 1131 q 1719 1165 1733 1165 q 1688 1163 1704 1165 q 1659 1153 1672 1160 q 1638 1133 1646 1146 q 1629 1100 1629 1121 q 1711 976 1642 1021 q 1899 928 1781 932 m 1951 794 q 1967 -1165 1967 -71 q 1619 -1751 1967 -1751 q 1347 -1642 1433 -1751 q 1243 -1439 1293 -1543 q 1068 -1329 1185 -1329 q 807 -1439 878 -1329 q 724 -1639 768 -1539 q 488 -1749 661 -1749 q 132 -1506 228 -1749 q 71 -1042 71 -1351 q 432 -510 71 -664 q 1097 -296 764 -403 q 1456 276 1456 -129 q 1185 675 1456 675 q 924 496 1007 675 l 914 496 q 674 665 843 665 q 444 553 501 665 q 407 286 407 479 q 571 -19 407 110 l 442 -19 q 211 339 211 -31 q 221 513 211 408 q 233 656 231 636 l 228 679 l 196 694 l 158 689 q 107 460 94 629 l 81 453 q 51 636 51 542 q 78 760 51 689 q 158 846 111 846 q 271 819 218 846 q 294 715 294 767 q 274 529 294 653 q 254 343 254 406 q 417 57 254 60 l 428 67 q 351 376 351 236 q 411 675 351 539 q 631 851 488 851 q 828 799 775 851 q 914 596 882 746 l 928 596 q 1260 856 976 856 q 1467 653 1403 856 q 1514 326 1514 515 q 1150 -412 1514 -194 q 478 -676 814 -546 q 114 -1196 114 -833 q 488 -1572 114 -1572 q 758 -1462 693 -1572 q 824 -1256 790 -1358 q 1035 -1146 869 -1146 q 1228 -1253 1181 -1146 q 1300 -1453 1264 -1351 q 1583 -1560 1374 -1560 q 1879 -1315 1810 -1560 q 1915 -889 1915 -1196 q 1904 794 1915 -606 q 1550 1065 1550 829 q 1565 1146 1550 1075 l 1592 1185 q 1693 1222 1643 1215 q 1957 929 1869 1222 q 2115 813 2050 907 q 2183 625 2181 718 q 2183 518 2185 567 l 2135 490 q 2085 694 2121 635 q 1951 794 2038 775 z "},"ᬜ":{"ha":2782,"x_min":136,"x_max":2632,"o":"m 2136 -15 l 2139 47 q 2263 28 2199 28 q 2499 117 2403 28 q 2596 344 2596 206 q 2450 586 2596 501 q 2158 657 2325 657 q 1751 482 1839 657 q 1658 151 1706 318 q 1324 -24 1590 -24 q 1517 372 1517 144 q 1246 661 1517 661 q 1096 622 1147 661 q 990 501 1054 596 l 981 501 q 913 601 965 547 q 817 654 860 654 q 557 589 639 654 q 468 338 468 515 q 515 137 468 239 q 639 -24 563 35 l 563 -24 q 300 306 300 -24 q 307 463 300 361 q 314 603 314 564 q 303 661 314 596 l 261 679 q 182 544 182 661 q 188 442 182 531 l 160 442 q 136 596 136 488 q 269 850 136 850 q 375 675 375 850 q 353 495 375 615 q 332 313 332 375 q 367 142 332 218 q 499 47 410 47 l 517 54 q 433 375 433 169 q 817 844 433 844 q 932 739 890 844 q 978 576 956 657 q 1096 779 1039 724 q 1308 857 1169 857 q 1503 686 1435 857 q 1558 406 1558 554 q 1457 67 1558 218 l 1460 57 q 1647 264 1597 57 q 1754 644 1729 596 q 2146 850 1861 850 q 2498 710 2364 850 q 2632 351 2632 569 q 2526 78 2632 190 q 2258 -33 2419 -33 q 2136 -15 2214 -33 z "},"ᬝ":{"ha":1782,"x_min":86,"x_max":1744,"o":"m 496 143 q 615 165 569 149 q 701 246 701 197 q 646 296 701 296 q 586 272 629 296 q 496 143 496 211 m 1701 -19 q 1704 114 1701 25 q 1707 250 1707 203 q 1419 672 1707 672 q 1142 525 1232 672 q 831 668 1074 668 q 706 630 771 668 q 625 536 642 592 l 594 532 q 679 759 600 661 q 886 857 758 857 q 1049 776 979 857 q 1146 614 1065 756 q 1432 857 1253 857 q 1744 425 1744 857 l 1744 -24 l 1701 -19 m 664 -550 q 440 -426 518 -550 q 376 -164 376 -319 q 385 -57 376 -108 q 189 40 239 -3 q 119 242 119 106 q 208 492 119 349 q 297 682 297 635 q 279 703 297 690 q 253 717 261 717 q 113 565 189 717 l 86 565 q 160 750 99 665 q 321 850 228 850 q 407 740 407 850 q 297 524 407 656 q 188 301 188 392 q 444 139 188 139 q 693 349 506 349 q 753 219 753 349 q 646 32 753 110 q 432 -50 551 -36 q 424 -135 424 -108 q 726 -414 424 -414 q 1006 -137 876 -414 l 1028 -140 q 664 -550 946 -550 z "},"ᬞ":{"ha":1775,"x_min":144,"x_max":1626,"o":"m 1583 -19 q 1586 114 1583 25 q 1589 250 1589 203 q 1301 672 1589 672 q 1024 525 1114 672 q 713 668 956 668 q 588 630 653 668 q 507 536 524 592 l 476 532 q 561 759 482 661 q 768 857 640 857 q 931 776 861 857 q 1028 614 947 756 q 1314 857 1135 857 q 1626 425 1626 857 l 1626 -24 l 1583 -19 m 444 22 q 488 11 463 15 q 535 7 514 7 q 590 14 558 7 q 797 206 725 71 l 824 206 q 564 -90 775 -28 q 540 -92 553 -92 q 517 -93 528 -93 q 421 -81 464 -93 q 350 -53 378 -69 q 251 22 299 -26 q 182 224 182 88 q 244 503 182 331 q 307 724 307 676 q 289 745 307 732 q 263 758 271 758 q 207 692 221 711 l 179 560 l 153 560 q 165 768 144 664 q 290 857 197 857 q 376 747 376 857 q 305 530 376 663 q 247 278 233 397 q 444 22 250 121 z "},"ᬟ":{"ha":1485,"x_min":122,"x_max":1310,"o":"m 1096 510 q 1057 857 1096 688 q 1240 769 1171 857 q 1310 564 1310 682 l 1310 -21 l 1264 -24 q 1268 117 1264 25 q 1261 457 1272 210 q 1122 675 1264 649 q 1135 442 1135 571 q 933 -17 1143 -17 q 802 113 846 -17 q 717 242 758 242 q 556 174 594 242 q 514 47 533 113 q 361 -21 478 -21 q 222 61 278 -21 q 178 222 178 132 q 255 483 178 325 q 332 665 332 642 q 329 679 332 668 q 326 694 326 690 q 271 717 297 717 q 149 493 181 717 l 122 493 q 358 849 144 849 q 426 746 426 849 q 329 536 426 675 q 232 322 232 397 q 290 190 232 225 q 436 164 336 164 q 552 293 510 164 q 675 422 594 422 q 793 288 763 422 q 936 154 824 154 q 1096 510 1082 154 z "},"ᬠ":{"ha":1289,"x_min":115,"x_max":1136,"o":"m 1089 510 q 1050 853 1089 688 l 1081 833 q 1117 672 1104 774 q 1128 442 1128 571 q 926 -17 1136 -17 q 795 113 839 -17 q 710 242 751 242 q 549 174 588 242 q 507 47 526 113 q 354 -21 471 -21 q 215 61 271 -21 q 171 222 171 132 q 248 483 171 325 q 325 665 325 642 q 322 679 325 668 q 319 694 319 690 q 264 717 290 717 q 142 493 174 717 l 115 493 q 351 849 138 849 q 419 746 419 849 q 322 536 419 675 q 225 322 225 397 q 283 190 225 225 q 429 164 329 164 q 545 293 503 164 q 668 422 588 422 q 786 288 756 422 q 929 154 817 154 q 1089 510 1075 154 z "},"ᬡ":{"ha":2049,"x_min":0,"x_max":1872,"o":"m 1579 -14 q 1514 192 1514 -14 q 1519 324 1514 247 q 1524 407 1524 400 q 1481 610 1524 547 q 1294 681 1428 681 q 1122 615 1174 681 q 1062 490 1093 554 q 946 426 1031 426 q 828 487 844 426 q 796 610 813 547 q 613 671 760 671 q 394 593 453 671 q 334 449 365 524 q 206 374 303 374 q 0 554 0 374 q 19 717 0 613 l 58 714 q 82 583 58 622 q 203 535 114 535 q 358 619 329 535 q 401 772 382 694 q 633 857 450 857 q 779 785 743 857 q 822 649 799 717 q 975 576 858 576 q 1106 717 1050 576 q 1258 857 1161 857 q 1565 433 1565 857 q 1562 313 1565 390 q 1558 201 1558 235 q 1572 94 1558 143 l 1608 81 l 1640 90 q 1669 276 1669 136 l 1669 397 q 1579 850 1669 531 q 1824 717 1758 850 q 1872 419 1872 622 l 1872 -24 l 1826 -24 q 1831 102 1826 19 q 1836 228 1836 185 q 1679 688 1836 658 l 1686 688 l 1669 671 q 1708 397 1708 554 l 1708 214 q 1699 51 1708 81 q 1579 -14 1676 -14 z "},"ᬢ":{"ha":1774,"x_min":111,"x_max":1599,"o":"m 576 -25 q 335 65 425 -25 q 246 307 246 156 q 265 469 246 363 q 285 628 285 575 q 275 690 285 660 q 246 703 249 703 q 164 608 176 703 q 164 464 164 604 l 135 454 q 111 582 111 500 q 144 753 111 676 q 265 854 183 854 q 360 756 360 854 q 335 570 360 693 q 311 385 311 447 q 615 149 311 149 q 786 172 694 149 q 907 254 907 201 q 806 353 907 353 q 740 348 783 353 q 681 343 697 343 q 543 510 543 343 q 931 857 543 857 q 1271 628 1199 857 q 1300 179 1300 529 q 1317 74 1300 129 q 1353 67 1336 67 q 1392 81 1353 67 q 1415 297 1415 163 q 1268 857 1415 667 q 1543 739 1468 857 q 1599 431 1599 647 l 1599 -25 l 1563 -28 l 1563 379 q 1464 664 1565 553 l 1413 681 l 1408 664 q 1468 228 1468 556 q 1350 -25 1468 -25 q 1251 153 1251 -25 q 1258 267 1251 194 q 1264 356 1264 339 q 871 690 1264 690 q 610 553 610 690 q 701 481 610 490 q 871 457 858 464 q 963 307 963 425 q 853 60 963 146 q 576 -25 743 -25 z "},"ᬣ":{"ha":1379,"x_min":56,"x_max":1226,"o":"m 846 -107 q 790 -3 824 -58 q 628 -22 713 -22 q 208 400 208 -22 q 223 506 208 436 q 238 611 238 576 q 218 690 238 664 l 179 706 q 97 538 97 690 q 107 429 97 485 l 85 429 q 56 576 56 497 q 82 739 56 657 q 179 853 117 853 q 306 744 306 853 q 276 572 306 686 q 247 400 247 458 q 596 163 247 163 l 715 163 q 501 443 686 215 l 419 364 l 400 378 q 521 563 429 439 q 778 167 592 524 q 1035 400 1035 182 q 956 585 1035 521 q 758 650 878 650 q 693 644 725 650 q 778 794 703 732 q 943 856 853 856 q 1144 751 1061 856 q 1226 526 1226 647 l 1226 -22 l 1185 -22 q 1194 228 1194 104 q 979 686 1194 686 q 918 674 943 686 q 1074 383 1074 572 q 1008 161 1074 267 q 836 14 943 56 q 865 -104 858 -39 l 846 -107 z "},"ᬤ":{"ha":1685,"x_min":146,"x_max":1522,"o":"m 794 228 q 850 107 801 169 q 954 44 899 44 q 1033 107 1033 44 q 976 203 1033 169 q 854 238 919 238 q 794 228 824 238 m 289 -24 q 182 44 224 -24 q 146 172 146 104 q 267 428 146 269 q 388 681 388 586 q 318 724 388 724 q 175 564 221 724 l 146 560 q 228 758 153 658 q 397 857 303 857 q 508 724 508 857 q 347 441 508 603 q 185 201 185 279 q 269 78 185 78 q 483 223 325 78 q 729 385 642 368 q 1144 857 729 857 q 1435 717 1333 857 q 1522 397 1522 593 l 1522 -24 l 1474 -26 l 1474 224 q 1408 554 1479 449 q 1101 678 1319 678 q 768 397 768 678 q 994 321 899 397 q 1089 119 1089 244 q 983 -21 1089 -21 q 756 211 804 -21 q 550 74 693 192 q 289 -24 433 -24 z "},"ᬥ":{"ha":1475,"x_min":122,"x_max":1308,"o":"m 361 -21 q 222 61 278 -21 q 178 222 178 132 q 255 483 178 325 q 332 665 332 642 q 329 679 332 668 q 326 694 326 690 q 271 717 297 717 q 149 493 181 717 l 122 493 q 358 849 144 849 q 426 746 426 849 q 329 536 426 675 q 232 322 232 397 q 290 190 232 225 q 436 164 336 164 q 552 293 510 164 q 675 422 594 422 q 793 288 763 422 q 936 154 824 154 q 1082 410 1082 154 q 999 595 1082 503 q 824 688 917 688 q 758 671 792 688 q 842 806 772 756 q 999 856 911 856 q 1216 752 1124 856 q 1308 519 1308 649 l 1308 -21 l 1264 -24 q 1268 117 1264 25 q 1272 254 1272 210 q 1004 704 1272 704 q 940 688 965 704 q 1094 529 1038 656 q 1143 310 1143 422 q 933 -17 1143 -17 q 802 113 846 -17 q 717 242 758 242 q 556 174 594 242 q 514 47 533 113 q 361 -21 478 -21 z "},"ᬦ":{"ha":1554,"x_min":142,"x_max":1392,"o":"m 311 40 q 396 197 396 40 l 396 282 q 308 210 350 269 q 265 103 265 151 q 311 40 265 40 m 582 306 q 736 106 611 188 q 974 25 850 25 q 1068 96 1068 25 q 869 256 1068 194 q 582 306 715 306 m 406 429 q 393 603 403 572 q 272 693 369 693 q 198 567 213 651 q 182 406 183 482 l 150 396 l 142 531 q 328 850 147 857 q 432 683 403 850 q 449 456 439 569 l 519 475 q 644 779 524 688 q 967 857 749 857 q 1392 446 1392 857 l 1392 -25 l 1343 -25 q 1348 160 1343 38 q 1353 342 1353 282 q 1242 625 1353 550 q 932 683 1153 683 q 560 482 560 683 q 925 403 749 482 q 1150 146 1150 306 q 971 -25 1150 -25 q 696 76 821 -25 q 526 315 579 168 q 444 296 485 311 q 318 -21 432 -21 q 210 115 210 -21 q 265 299 210 211 q 406 429 321 388 z "},"ᬧ":{"ha":1415,"x_min":83,"x_max":1238,"o":"m 233 426 q 248 534 233 463 q 263 642 263 606 q 211 707 263 707 q 126 540 126 707 q 132 429 126 504 q 119 429 129 429 q 103 426 110 426 q 83 583 83 504 q 263 854 83 854 q 325 714 325 854 q 302 560 325 661 q 279 407 279 460 q 651 163 279 163 q 957 226 882 163 q 1032 518 1032 289 q 1021 653 1032 564 q 1010 789 1010 743 q 1051 857 1010 857 q 1238 489 1238 857 l 1238 -21 l 1192 -21 l 1192 394 q 1104 678 1192 678 l 1092 675 q 1065 619 1065 649 q 1074 529 1065 589 q 1082 439 1082 469 q 667 -26 1082 -26 q 233 426 233 -26 z "},"ᬨ":{"ha":1196,"x_min":15,"x_max":1103,"o":"m 638 1086 q 614 1033 614 1046 q 676 967 614 992 q 779 947 729 947 q 839 957 810 947 q 676 1099 774 1099 q 657 1093 667 1096 q 638 1086 647 1090 m 175 372 q 186 508 175 418 q 197 649 197 599 q 154 711 197 711 q 68 586 68 711 l 68 592 l 82 442 l 44 431 q 15 618 15 542 q 44 771 15 703 q 158 856 82 856 q 264 738 264 856 q 243 592 264 690 q 222 444 222 494 q 572 172 222 172 q 953 544 953 172 q 900 811 953 675 l 829 803 q 640 861 719 803 q 554 1031 554 926 q 714 1146 554 1146 q 888 972 774 1146 q 1067 1172 1019 1036 l 1075 1179 l 1096 1157 q 1099 1135 1096 1151 q 1103 1108 1103 1118 q 939 839 1103 943 q 1011 465 1011 681 q 907 93 1011 210 q 554 -24 803 -24 q 278 88 382 -24 q 175 372 175 200 z "},"ᬩ":{"ha":2053,"x_min":115,"x_max":1876,"o":"m 1828 -26 q 1833 106 1828 19 q 1838 235 1838 192 q 1697 678 1838 678 l 1681 675 q 1697 540 1683 649 q 1707 407 1707 460 q 1628 79 1707 169 q 1315 -24 1550 -11 q 1521 390 1521 149 q 1240 671 1521 671 q 1083 629 1133 671 q 983 499 1064 615 l 974 504 q 901 610 947 560 q 797 671 846 671 q 468 371 468 671 q 628 -21 468 107 q 526 -26 563 -26 q 278 446 278 -26 q 290 538 278 479 q 301 625 301 596 q 282 688 301 610 l 253 700 q 158 554 158 681 q 164 469 158 524 l 132 460 q 115 615 115 589 q 268 847 115 847 q 360 700 360 847 q 340 524 360 642 q 321 349 321 407 q 350 169 321 250 q 474 58 393 58 l 497 64 l 500 71 q 422 385 422 192 q 488 690 422 560 q 725 857 568 857 q 901 779 843 857 q 983 593 928 743 q 1260 857 1097 857 q 1499 719 1410 857 q 1574 443 1574 603 q 1472 64 1574 257 q 1625 204 1576 64 q 1661 433 1661 303 q 1550 847 1661 671 l 1625 854 q 1876 436 1876 854 l 1876 -26 l 1828 -26 z "},"ᬪ":{"ha":1674,"x_min":146,"x_max":1518,"o":"m 958 38 q 1004 97 1004 38 q 951 192 1004 154 q 838 229 899 229 q 786 221 835 229 q 958 38 801 38 m 479 431 l 444 428 q 257 657 374 657 q 206 607 218 657 q 186 511 194 557 l 151 511 l 151 611 q 197 814 151 729 q 212 823 206 822 q 224 824 218 824 q 271 814 257 824 l 281 807 q 429 646 390 735 q 479 431 450 600 m 296 253 q 208 122 208 190 l 211 103 q 272 81 235 81 q 482 215 332 81 q 714 382 649 364 q 797 703 714 568 q 1071 856 896 856 q 1456 667 1361 856 q 1518 215 1517 533 l 1518 -21 l 1467 -24 q 1438 164 1438 35 q 1440 229 1438 183 q 1440 299 1440 275 q 1389 565 1440 481 q 1111 686 1313 686 q 856 631 925 686 q 756 390 778 568 q 1063 118 1063 367 q 942 -21 1063 -21 q 743 207 775 -21 q 528 67 694 188 q 289 -24 404 -24 q 186 15 226 -24 q 146 115 146 54 q 253 275 146 200 l 296 253 z "},"ᬫ":{"ha":1508,"x_min":86,"x_max":1332,"o":"m 278 260 q 417 464 278 393 q 278 665 278 500 q 388 792 278 714 q 346 801 358 801 q 183 719 242 801 q 125 526 125 636 q 161 371 125 461 l 138 351 q 86 571 86 422 q 521 857 86 857 q 836 844 628 857 l 846 699 l 638 699 q 363 578 363 704 q 560 481 363 490 l 553 481 q 778 483 628 483 l 778 435 l 589 435 q 339 306 339 442 q 713 156 339 156 q 1011 228 917 156 q 1118 507 1118 308 q 1079 854 1118 685 q 1263 767 1193 854 q 1332 561 1332 679 l 1332 -22 l 1283 -22 l 1283 454 q 1144 672 1286 646 q 1157 439 1157 568 q 715 -22 1157 -22 q 278 260 278 -22 z "},"ᬬ":{"ha":1792,"x_min":129,"x_max":1615,"o":"m 224 218 q 276 433 224 292 q 329 647 329 575 q 321 692 329 653 l 272 714 q 188 588 214 701 q 164 425 183 578 l 129 425 q 311 857 129 857 q 380 825 349 857 q 411 753 411 793 q 353 542 411 679 q 294 331 294 406 q 342 200 294 254 q 467 146 389 146 q 732 371 635 146 q 811 740 811 546 q 904 775 860 765 q 1206 153 904 153 q 1399 429 1399 153 q 1378 578 1399 481 q 1358 724 1358 675 q 1428 857 1358 857 q 1615 358 1615 857 l 1615 -25 l 1567 -25 q 1569 32 1567 -32 q 1569 163 1569 101 q 1456 708 1569 675 l 1428 682 q 1442 494 1428 619 q 1456 301 1456 368 q 1401 85 1456 172 q 1215 -22 1336 -22 q 943 231 1028 -22 q 863 640 914 315 l 853 638 q 463 -25 726 -25 q 224 218 224 -25 z "},"ᬭ":{"ha":1424,"x_min":125,"x_max":1254,"o":"m 176 -24 q 351 153 278 31 q 425 390 425 275 q 278 672 425 575 q 193 667 253 672 l 151 525 l 125 529 l 125 572 q 144 842 125 660 q 179 856 171 856 q 385 686 294 856 q 464 413 464 539 q 340 67 464 222 q 355 63 343 67 q 369 60 367 60 q 553 269 529 60 q 581 650 565 458 q 874 858 633 858 q 1183 757 1099 858 q 1254 438 1254 669 l 1254 -24 l 1206 -24 q 1213 360 1213 229 q 1167 606 1213 532 q 943 700 1106 700 q 640 551 708 700 q 588 249 631 525 q 428 -4 558 57 q 176 -24 389 -24 z "},"ᬮ":{"ha":2040,"x_min":133,"x_max":1872,"o":"m 403 -24 q 296 165 296 -24 q 309 364 296 232 q 322 561 322 496 q 310 658 322 633 q 225 690 286 690 q 169 578 169 690 q 196 435 169 549 l 169 428 q 133 631 133 549 q 281 854 133 854 q 369 664 369 854 q 354 442 369 590 q 339 219 339 294 q 342 136 339 151 q 400 81 354 97 q 475 268 475 100 q 470 381 475 314 q 465 464 465 447 q 719 857 465 857 q 946 697 900 857 q 963 389 963 639 q 1067 194 963 239 q 1303 161 1135 161 q 1554 203 1479 161 q 1656 435 1656 265 q 1578 854 1656 536 q 1872 307 1872 854 q 1867 142 1872 251 q 1863 -24 1863 32 l 1814 -24 q 1817 64 1814 -14 q 1817 194 1817 139 q 1674 675 1817 675 q 1656 664 1663 671 q 1686 379 1686 350 q 1586 84 1686 192 q 1297 -24 1486 -24 q 953 161 1014 -24 q 920 514 936 333 q 725 694 904 694 q 500 379 500 694 q 505 256 500 333 q 510 149 510 178 q 403 -24 510 -24 z "},"ᬯ":{"ha":1403,"x_min":83,"x_max":1238,"o":"m 611 -24 q 238 421 238 -24 q 248 524 238 456 q 258 626 258 593 q 228 696 258 681 l 171 689 q 126 568 129 646 q 136 436 126 554 l 108 426 q 83 581 83 524 q 113 743 83 663 q 221 849 153 849 q 324 724 324 849 q 300 571 324 671 q 276 421 276 471 q 657 167 276 167 q 913 196 831 167 q 1047 390 1047 246 q 946 600 1047 543 q 710 643 871 643 q 953 856 775 856 q 1238 371 1238 856 l 1238 -11 l 1192 -7 l 1199 171 q 1006 692 1194 692 q 940 663 975 692 q 1048 556 1006 636 q 1090 400 1090 475 q 953 79 1090 190 q 611 -24 828 -24 z "},"ᬰ":{"ha":1774,"x_min":107,"x_max":1600,"o":"m 935 -17 q 886 194 890 179 q 782 374 850 315 q 714 315 740 354 l 685 329 q 719 436 717 426 q 775 531 743 494 q 919 289 867 479 q 961 -4 961 139 l 935 -17 m 1053 -26 q 1242 361 1242 163 q 869 661 1242 661 q 456 374 456 661 q 615 -21 456 119 q 581 -24 606 -21 q 544 -26 557 -26 q 267 368 267 -26 q 278 485 267 407 q 289 603 289 564 q 228 688 289 675 q 146 564 146 668 q 160 436 146 589 l 124 436 q 107 589 107 567 q 143 760 107 688 q 274 854 189 854 q 354 710 354 854 q 333 535 354 651 q 313 361 313 419 q 407 81 313 163 l 431 69 l 456 64 l 475 71 q 410 371 410 244 q 527 725 410 593 q 864 857 644 857 q 1178 728 1060 857 q 1297 404 1297 599 q 1190 68 1297 289 q 1385 475 1385 68 q 1340 857 1385 567 q 1600 381 1600 857 l 1600 -26 l 1558 -26 q 1568 221 1568 54 q 1435 658 1568 615 l 1421 651 q 1426 519 1421 610 q 1431 385 1431 429 q 1350 78 1431 172 q 1053 -26 1261 -26 z "},"ᬱ":{"ha":1356,"x_min":54,"x_max":1199,"o":"m 821 -106 q 781 -4 821 -62 q 639 -24 714 -24 q 315 99 429 -24 q 200 433 200 222 q 217 527 200 465 q 233 622 233 589 q 225 685 233 654 l 185 707 q 93 535 93 690 q 107 432 93 488 l 86 426 q 54 589 54 488 q 85 756 54 681 q 199 857 124 857 q 296 713 296 857 q 269 562 296 663 q 243 411 243 461 q 410 197 243 246 q 710 169 500 169 q 490 443 614 335 q 419 368 464 421 l 393 381 q 517 571 458 524 q 778 171 625 453 q 1000 426 1000 192 q 872 844 1000 597 l 886 857 q 1156 713 1088 857 q 1199 390 1199 622 l 1199 -24 l 1154 -24 l 1154 504 q 1110 617 1156 567 q 1004 685 1065 668 l 1000 671 q 1042 407 1042 535 q 821 15 1042 133 q 846 -101 843 -50 l 821 -106 z "},"ᬲ":{"ha":1518,"x_min":121,"x_max":1344,"o":"m 169 51 q 189 45 179 49 q 208 39 199 42 q 388 269 274 39 q 326 276 365 269 q 210 206 251 276 q 169 51 169 136 m 183 -24 q 121 83 121 -24 q 214 326 121 224 q 446 429 307 429 q 489 608 489 533 q 397 713 489 713 q 169 429 286 713 l 143 435 q 251 699 176 582 q 465 856 346 856 q 540 796 511 856 q 564 699 564 751 q 494 413 564 660 q 703 260 554 393 q 918 143 831 143 q 1126 406 1126 143 q 1108 576 1126 464 q 1090 744 1090 689 q 1149 858 1090 832 q 1322 663 1276 819 q 1344 390 1344 575 l 1344 -26 l 1296 -26 q 1299 99 1296 15 q 1303 224 1303 182 q 1293 490 1303 422 q 1182 706 1269 679 q 1158 663 1158 682 q 1169 574 1158 633 q 1179 481 1179 514 q 801 -24 1179 -24 q 613 93 736 -24 q 433 260 521 175 q 342 81 361 110 q 183 -24 274 -24 z "},"ᬳ":{"ha":2065,"x_min":118,"x_max":1889,"o":"m 265 407 q 281 513 265 443 q 297 619 297 583 q 275 690 297 658 l 219 697 q 161 567 161 661 q 176 429 161 554 l 147 419 q 118 593 118 504 q 275 857 118 857 q 343 811 314 857 q 372 724 372 765 q 340 568 372 671 q 307 410 307 465 q 665 165 307 165 q 976 250 892 165 q 1042 449 1042 315 q 1038 527 1042 475 q 1035 603 1035 579 q 1086 782 1035 726 q 1344 857 1158 857 q 1563 501 1563 857 q 1556 338 1563 439 q 1550 208 1550 238 q 1601 74 1550 94 q 1674 299 1674 94 l 1674 407 q 1638 857 1674 697 q 1860 664 1804 840 q 1889 342 1889 564 l 1889 -24 l 1843 -24 q 1847 102 1843 19 q 1850 228 1850 185 q 1726 661 1850 586 l 1713 658 l 1728 235 q 1606 -24 1717 -24 q 1543 -7 1592 -24 q 1501 149 1501 44 q 1509 267 1501 189 q 1517 374 1517 344 q 1482 593 1517 528 q 1296 681 1432 681 q 1081 499 1106 681 q 1035 158 1057 329 q 646 -24 960 -24 q 360 100 457 -24 q 265 407 265 214 z "},"᬴":{"ha":751,"x_min":32,"x_max":722,"o":"m 275 1564 q 304 1633 275 1604 q 374 1663 333 1663 q 443 1633 414 1663 q 472 1564 472 1604 q 443 1494 472 1524 q 374 1465 414 1465 q 304 1494 333 1465 q 275 1564 275 1524 m 32 1208 q 61 1278 32 1249 q 131 1307 90 1307 q 200 1278 171 1307 q 229 1208 229 1249 q 200 1139 229 1168 q 131 1110 171 1110 q 61 1139 90 1110 q 32 1208 32 1168 m 525 1208 q 554 1278 525 1249 q 624 1307 583 1307 q 693 1278 664 1307 q 722 1208 722 1249 q 693 1139 722 1168 q 624 1110 664 1110 q 554 1139 583 1110 q 525 1208 525 1168 z "},"ᬵ":{"ha":1026,"x_min":0,"x_max":928,"o":"m 600 -24 q 471 54 471 -24 q 561 197 471 197 q 636 145 590 197 q 724 93 682 93 q 850 168 801 93 q 889 314 889 229 q 711 608 889 511 q 354 683 571 683 q 10 603 178 683 l 0 618 q 432 856 149 856 q 785 703 642 856 q 928 340 928 550 q 769 22 928 115 l 772 18 q 600 -24 682 -24 z "},"ᬶ":{"ha":1083,"x_min":26,"x_max":974,"o":"m 465 981 q 26 1310 228 1068 l 67 1350 q 247 1164 178 1217 q 178 1422 178 1281 q 287 1694 178 1590 q 565 1799 396 1799 q 862 1690 750 1799 q 974 1396 974 1582 q 693 981 974 1111 l 661 1025 q 908 1328 908 1136 q 583 1617 908 1617 q 250 1353 250 1617 q 326 1154 250 1235 q 503 1025 360 1121 q 465 981 492 981 z "},"ᬷ":{"ha":1083,"x_min":25,"x_max":974,"o":"m 464 979 q 25 1310 226 1068 l 65 1349 q 246 1164 176 1217 q 176 1422 176 1279 q 285 1694 176 1590 q 564 1799 394 1799 q 861 1690 749 1799 q 974 1396 974 1581 q 693 979 974 1111 l 660 1025 q 907 1326 907 1135 q 583 1617 907 1617 q 250 1353 250 1617 q 325 1154 250 1233 q 501 1025 358 1121 q 464 979 490 979 m 713 1157 q 538 1336 660 1221 l 494 1346 l 438 1279 l 394 1293 q 475 1471 425 1389 l 504 1485 q 739 1183 600 1429 l 713 1157 z "},"ᬸ":{"ha":690,"x_min":0,"x_max":633,"o":"m 0 -1493 l 0 -1464 q 122 -1115 0 -1342 q 358 -696 240 -907 q 503 -235 490 -433 l 532 -244 q 413 -696 528 -439 q 201 -1108 307 -900 q 90 -1442 90 -1329 q 176 -1479 90 -1479 q 468 -949 333 -1479 q 588 -287 576 -532 l 589 -269 q 596 -49 592 -242 l 633 -49 l 633 -115 q 554 -1000 633 -612 q 122 -1633 426 -1633 q 7 -1543 25 -1633 l 0 -1493 z "},"ᬹ":{"ha":501,"x_min":1,"x_max":501,"o":"m 1 -1617 q 401 -992 401 -1250 q 278 -835 401 -921 q 108 -704 121 -729 l 94 -610 q 153 -322 92 -490 q 268 -49 211 -187 l 300 -61 q 185 -458 185 -361 q 343 -640 185 -539 q 501 -835 501 -742 q 11 -1633 501 -1222 l 1 -1617 z "},"ᬺ":{"ha":1654,"x_min":19,"x_max":1533,"o":"m 1293 -1667 l 1189 -1542 q 681 -1664 968 -1664 q 206 -1460 392 -1664 q 19 -964 19 -1256 q 278 -378 19 -665 l 392 -343 q 97 -919 97 -649 q 266 -1319 97 -1153 q 668 -1485 435 -1485 q 1089 -1419 956 -1485 q 697 -1061 929 -1183 l 631 -1106 l 607 -1190 l 571 -1176 l 642 -865 l 656 -862 q 1169 -1389 914 -1039 q 1469 -760 1469 -1207 q 1264 -60 1469 -390 l 1301 -53 q 1533 -806 1533 -351 q 1467 -1181 1533 -1024 q 1242 -1490 1400 -1339 q 1286 -1576 1244 -1499 q 1313 -1667 1313 -1625 l 1293 -1667 z "},"ᬻ":{"ha":2488,"x_min":0,"x_max":2476,"o":"m 1274 -1667 l 1169 -1542 q 661 -1664 949 -1664 q 186 -1460 372 -1664 q 0 -964 0 -1256 q 258 -378 0 -665 l 372 -343 q 78 -919 78 -649 q 247 -1319 78 -1153 q 649 -1485 415 -1485 q 1069 -1419 936 -1485 q 678 -1061 910 -1183 l 611 -1106 l 588 -1190 l 551 -1176 l 622 -865 l 636 -862 q 1150 -1389 894 -1039 q 1450 -760 1450 -1207 q 1244 -60 1450 -390 l 1282 -53 q 1514 -806 1514 -351 q 1447 -1181 1514 -1024 q 1222 -1490 1381 -1339 q 1267 -1576 1225 -1499 q 1293 -1667 1293 -1625 l 1274 -1667 m 2019 101 q 2111 203 2019 203 q 2186 150 2140 203 q 2275 97 2232 97 q 2397 174 2353 97 q 2438 319 2438 235 q 2269 606 2438 507 q 1932 686 2135 686 q 1561 607 1739 686 l 1554 621 q 1992 853 1706 853 q 2341 704 2206 853 q 2476 339 2476 556 q 2394 90 2476 196 q 2165 -19 2303 -19 q 2019 101 2019 -19 z "},"ᬼ":{"ha":1496,"x_min":31,"x_max":1417,"o":"m 311 1243 q 1015 1799 603 1799 q 1372 1633 1233 1799 l 1372 1621 l 529 1290 l 513 1326 l 1144 1607 q 910 1663 1082 1663 q 344 1224 685 1663 l 311 1243 m 364 979 q 31 1317 143 1171 l 97 1386 q 242 1197 169 1293 q 404 1025 328 1092 q 364 979 397 982 m 1413 -172 q 1417 -300 1417 -214 q 1386 -731 1417 -614 q 1093 -992 1318 -992 q 822 -806 874 -992 q 789 -460 806 -633 q 601 -272 764 -272 q 403 -587 403 -272 q 408 -714 403 -636 q 413 -819 413 -792 q 307 -992 413 -992 q 197 -803 197 -992 q 211 -599 197 -733 q 225 -400 225 -465 q 206 -303 225 -331 q 126 -276 188 -276 q 71 -392 71 -276 q 97 -533 71 -414 l 71 -540 q 36 -337 36 -397 q 182 -114 36 -114 q 274 -303 274 -114 q 257 -535 274 -382 q 240 -767 240 -689 q 303 -887 240 -887 q 378 -692 378 -887 q 373 -583 378 -646 q 368 -510 368 -521 q 594 -111 368 -111 q 819 -289 789 -111 q 839 -628 829 -460 q 1100 -806 876 -806 q 1389 -436 1389 -806 q 1383 -306 1389 -387 q 1376 -179 1376 -199 l 1413 -172 z "},"ᬽ":{"ha":2563,"x_min":83,"x_max":2563,"o":"m 364 1243 q 1068 1799 656 1799 q 1425 1633 1286 1799 l 1425 1621 l 582 1290 l 565 1326 l 1197 1607 q 963 1663 1135 1663 q 397 1224 738 1663 l 364 1243 m 417 979 q 83 1317 196 1171 l 150 1386 q 294 1197 222 1293 q 457 1025 381 1092 q 417 979 450 982 m 1465 -172 q 1469 -300 1469 -214 q 1439 -731 1469 -614 q 1146 -992 1371 -992 q 875 -806 926 -992 q 842 -460 858 -633 q 654 -272 817 -272 q 456 -587 456 -272 q 460 -714 456 -636 q 465 -819 465 -792 q 360 -992 465 -992 q 250 -803 250 -992 q 264 -599 250 -733 q 278 -400 278 -465 q 259 -303 278 -331 q 179 -276 240 -276 q 124 -392 124 -276 q 150 -533 124 -414 l 124 -540 q 89 -337 89 -397 q 235 -114 89 -114 q 326 -303 326 -114 q 310 -535 326 -382 q 293 -767 293 -689 q 356 -887 293 -887 q 431 -692 431 -887 q 426 -583 431 -646 q 421 -510 421 -521 q 647 -111 421 -111 q 872 -289 842 -111 q 892 -628 882 -460 q 1153 -806 929 -806 q 1442 -436 1442 -806 q 1436 -306 1442 -387 q 1429 -179 1429 -199 l 1465 -172 m 2106 101 q 2197 203 2106 203 q 2272 150 2226 203 q 2361 97 2318 97 q 2483 174 2439 97 q 2524 319 2524 235 q 2356 606 2524 507 q 2018 686 2221 686 q 1647 607 1825 686 l 1640 621 q 2078 853 1792 853 q 2427 704 2292 853 q 2563 339 2563 556 q 2481 90 2563 196 q 2251 -19 2389 -19 q 2106 101 2106 -19 z "},"ᬾ":{"ha":940,"x_min":0,"x_max":878,"o":"m 633 -1240 q 563 -911 563 -1079 q 678 -295 563 -700 q 793 317 793 110 q 711 557 793 460 q 489 654 629 654 q 207 290 207 654 l 132 264 q 0 757 132 524 l 71 732 q 161 507 86 703 l 175 511 q 507 857 247 857 q 793 721 693 857 q 878 407 878 603 q 758 -215 878 196 q 638 -839 638 -625 q 701 -1172 638 -1015 l 633 -1240 z "},"ᬿ":{"ha":879,"x_min":0,"x_max":858,"o":"m 207 931 l 193 969 q 447 1040 321 975 q 610 1231 610 1122 q 522 1315 610 1300 q 350 1349 435 1331 q 260 1488 260 1379 q 406 1683 260 1618 q 665 1742 522 1742 l 660 1697 q 381 1478 381 1628 q 457 1380 381 1399 q 610 1349 533 1361 q 686 1213 686 1314 q 207 931 686 931 m 615 -1242 q 549 -893 549 -1092 q 660 -292 549 -690 q 772 314 772 107 q 692 556 772 461 q 465 650 613 650 q 242 542 303 650 q 189 282 211 479 l 128 264 q 0 753 128 464 q 104 657 58 753 q 154 507 128 581 l 167 510 q 264 749 217 682 q 489 856 343 856 q 769 708 668 856 q 858 392 858 585 q 737 -225 858 182 q 615 -849 615 -632 q 681 -1182 615 -1022 l 615 -1242 z "},"ᭀ":{"ha":3664,"x_min":89,"x_max":3664,"o":"m 3207 106 q 3299 207 3207 207 q 3374 154 3328 207 q 3463 101 3419 101 q 3585 178 3540 101 q 3625 324 3625 239 q 3457 610 3625 511 q 3119 690 3322 690 q 2749 611 2926 690 l 2742 625 q 3179 857 2893 857 q 3528 708 3393 857 q 3664 343 3664 560 q 3582 94 3664 200 q 3353 -15 3490 -15 q 3207 106 3207 -15 m 722 -1240 q 651 -911 651 -1079 q 767 -295 651 -700 q 882 317 882 110 q 800 557 882 460 q 578 654 718 654 q 296 290 296 654 l 221 264 q 89 757 221 524 l 160 732 q 250 507 175 703 l 264 511 q 596 857 336 857 q 882 721 782 857 q 967 407 967 603 q 847 -215 967 196 q 726 -839 726 -625 q 790 -1172 726 -1015 l 722 -1240 z "},"ᭁ":{"ha":3629,"x_min":76,"x_max":3629,"o":"m 3172 106 q 3264 207 3172 207 q 3339 154 3293 207 q 3428 101 3385 101 q 3550 178 3506 101 q 3590 324 3590 239 q 3422 610 3590 511 q 3085 690 3288 690 q 2714 611 2892 690 l 2707 625 q 3144 857 2858 857 q 3494 708 3358 857 q 3629 343 3629 560 q 3547 94 3629 200 q 3318 -15 3456 -15 q 3172 106 3172 -15 m 283 932 l 269 971 q 524 1042 397 976 q 686 1232 686 1124 q 599 1317 686 1301 q 426 1350 511 1332 q 336 1489 336 1381 q 482 1685 336 1619 q 742 1743 599 1743 l 736 1699 q 457 1479 457 1629 q 533 1381 457 1400 q 686 1350 610 1363 q 763 1214 763 1315 q 283 932 763 932 m 692 -1240 q 625 -892 625 -1090 q 737 -290 625 -689 q 849 315 849 108 q 769 557 849 463 q 542 651 689 651 q 318 543 379 651 q 265 283 288 481 l 204 265 q 76 754 204 465 q 181 658 135 754 q 231 508 204 582 l 243 511 q 340 750 293 683 q 565 857 419 857 q 846 710 744 857 q 935 393 935 586 q 813 -224 935 183 q 692 -847 692 -631 q 757 -1181 692 -1021 l 692 -1240 z "},"ᭂ":{"ha":1347,"x_min":6,"x_max":1347,"o":"m 286 1243 q 990 1799 578 1799 q 1347 1633 1208 1799 l 1347 1621 l 504 1290 l 488 1326 l 1119 1607 q 885 1663 1057 1663 q 319 1224 660 1663 l 286 1243 m 339 979 q 6 1317 118 1171 l 72 1386 q 217 1197 144 1293 q 379 1025 303 1092 q 339 979 372 982 z "},"ᭃ":{"ha":2496,"x_min":0,"x_max":2479,"o":"m 281 1243 q 985 1799 572 1799 q 1342 1633 1203 1799 l 1342 1621 l 499 1290 l 482 1326 l 1114 1607 q 879 1663 1051 1663 q 314 1224 654 1663 l 281 1243 m 333 979 q 0 1317 113 1171 l 67 1386 q 211 1197 139 1293 q 374 1025 297 1092 q 333 979 367 982 m 2022 101 q 2114 203 2022 203 q 2189 150 2143 203 q 2278 97 2235 97 q 2400 174 2356 97 q 2440 319 2440 235 q 2272 606 2440 507 q 1935 686 2138 686 q 1564 607 1742 686 l 1557 621 q 1994 853 1708 853 q 2344 704 2208 853 q 2479 339 2479 556 q 2397 90 2479 196 q 2168 -19 2306 -19 q 2022 101 2022 -19 z "},"᭄":{"ha":604,"x_min":-556,"x_max":569,"o":"m 546 -1712 q 174 -711 174 -1506 q 253 151 174 -422 q 333 1017 333 724 q -97 1589 333 1589 q -417 1407 -308 1589 q -508 1032 -508 1257 l -533 1021 q -556 1224 -556 1113 q -437 1604 -556 1447 q -90 1774 -304 1774 q 374 1107 374 1774 q 333 394 374 874 q 293 -324 293 -85 q 333 -1042 293 -804 q 569 -1706 386 -1443 l 546 -1712 z "},"ᭅ":{"ha":1757,"x_min":82,"x_max":1708,"o":"m 199 79 q 264 36 199 36 q 335 290 335 36 q 199 79 199 238 m 917 32 q 1057 90 1057 32 q 863 265 1057 193 q 569 321 706 321 q 710 129 596 226 q 917 32 824 32 m 1426 -24 q 1339 74 1351 -24 q 1339 226 1339 64 l 1339 331 q 1242 625 1339 554 q 931 683 1164 683 q 547 499 547 683 l 554 486 q 917 408 744 482 q 1135 149 1135 314 q 921 -21 1135 -21 q 682 90 804 -21 q 528 317 560 200 q 375 300 463 317 l 371 199 q 250 -22 381 -22 q 147 124 147 -22 q 344 439 147 325 q 332 601 344 556 q 218 696 306 696 q 131 575 163 696 q 108 410 108 488 l 82 413 q 260 847 82 847 q 374 456 374 847 q 515 472 482 469 q 940 856 528 856 q 1317 693 1228 856 q 1368 268 1368 589 q 1433 76 1368 81 l 1451 79 l 1464 85 l 1475 93 q 1497 326 1497 168 q 1407 849 1497 618 q 1667 707 1601 849 q 1708 392 1708 613 l 1708 -21 l 1663 -21 q 1667 122 1663 28 q 1672 263 1672 217 q 1501 683 1672 674 q 1521 512 1501 625 q 1540 340 1540 399 l 1540 217 q 1426 -24 1540 -24 m 471 625 q 488 -40 461 71 q 610 -207 514 -151 l 739 -218 q 983 -89 863 -186 l 1010 -89 q 814 -306 947 -235 q 504 -257 610 -369 q 421 -15 428 -136 q 413 281 407 128 q 433 601 418 433 l 471 625 z "},"ᭆ":{"ha":3049,"x_min":161,"x_max":2869,"o":"m 278 81 q 343 38 278 38 q 414 292 414 38 q 278 81 278 239 m 936 32 q 1076 90 1076 32 q 882 265 1076 193 q 589 321 725 321 q 729 129 615 226 q 936 32 843 32 m 1635 99 q 1972 217 1886 79 q 2022 449 2022 315 q 2019 527 2022 475 q 2015 603 2015 579 q 2067 782 2015 726 q 2325 857 2139 857 q 2543 501 2543 857 q 2537 338 2543 439 q 2531 208 2531 238 q 2582 74 2531 94 q 2654 299 2654 94 l 2654 407 q 2618 857 2654 697 q 2840 664 2785 840 q 2869 342 2869 564 l 2869 -24 l 2824 -24 q 2827 102 2824 19 q 2831 228 2831 185 q 2707 661 2831 586 l 2693 658 l 2708 235 q 2586 -24 2697 -24 q 2524 -7 2572 -24 q 2482 149 2482 44 q 2490 267 2482 189 q 2497 374 2497 344 q 2463 593 2497 528 q 2276 681 2413 681 q 2061 499 2086 681 q 2015 158 2038 329 q 1878 0 1929 24 l 1678 -26 q 1532 0 1618 -24 q 1363 158 1375 56 l 1356 331 q 1261 625 1358 554 q 950 683 1183 683 q 567 499 567 683 l 574 486 q 936 408 764 482 q 1154 149 1154 314 q 940 -21 1154 -21 q 701 90 824 -21 q 547 317 579 200 q 454 301 482 317 l 450 200 q 329 -21 460 -21 q 226 125 226 -21 q 424 440 226 326 q 411 603 424 557 q 297 697 385 697 q 210 576 242 697 q 188 411 188 489 l 161 414 q 339 849 161 849 q 453 457 453 849 q 535 472 501 469 q 960 856 547 856 q 1336 693 1247 856 q 1388 268 1388 589 q 1635 99 1407 107 z "},"ᭇ":{"ha":1599,"x_min":64,"x_max":1551,"o":"m 529 -25 q 288 65 378 -25 q 199 307 199 156 q 218 469 199 363 q 238 628 238 575 q 228 690 238 660 q 199 703 201 703 q 117 608 129 703 q 117 464 117 604 l 88 454 q 64 582 64 500 q 97 753 64 676 q 218 854 136 854 q 313 756 313 854 q 288 570 313 693 q 264 385 264 447 q 568 149 264 149 q 739 172 647 149 q 860 254 860 201 q 758 353 860 353 q 693 348 736 353 q 633 343 650 343 q 496 510 496 343 q 883 857 496 857 q 1224 628 1151 857 q 1253 179 1253 529 q 1269 74 1253 129 q 1306 67 1289 67 q 1344 81 1306 67 q 1368 297 1368 163 q 1221 857 1368 667 q 1496 739 1421 857 q 1551 431 1551 647 l 1551 -25 l 1515 -28 l 1515 379 q 1417 664 1518 553 l 1365 681 l 1361 664 q 1421 228 1421 556 q 1303 -25 1421 -25 q 1204 153 1204 -25 q 1210 267 1204 194 q 1217 356 1217 339 q 824 690 1217 690 q 563 553 563 690 q 654 481 563 490 q 824 457 811 464 q 915 307 915 425 q 806 60 915 146 q 529 -25 696 -25 m 415 585 q 432 -81 406 31 q 554 -247 458 -192 l 683 -258 q 928 -129 807 -226 l 954 -129 q 758 -346 892 -275 q 449 -297 554 -410 q 365 -56 372 -176 q 357 240 351 88 q 378 561 363 393 l 415 585 z "},"ᭈ":{"ha":1268,"x_min":22,"x_max":1176,"o":"m 172 426 q 187 534 172 463 q 201 642 201 606 q 150 707 201 707 q 65 540 65 707 q 71 429 65 504 q 58 429 68 429 q 42 426 49 426 q 22 583 22 504 q 201 854 22 854 q 264 714 264 854 q 241 560 264 661 q 218 407 218 460 q 590 163 218 163 q 896 226 821 163 q 971 518 971 289 q 960 653 971 564 q 949 789 949 743 q 990 857 949 857 q 1176 489 1176 857 l 1176 -21 l 1131 -21 l 1131 394 q 1043 678 1131 678 l 1031 675 q 1004 619 1004 649 q 1013 529 1004 589 q 1021 439 1021 469 q 606 -26 1021 -26 q 172 426 172 -26 m 472 554 q 489 -111 463 0 q 611 -278 515 -222 l 740 -289 q 985 -160 864 -257 l 1011 -160 q 815 -376 949 -306 q 506 -328 611 -440 q 422 -86 429 -207 q 414 210 408 57 q 435 531 419 363 l 472 554 z "},"ᭉ":{"ha":1264,"x_min":15,"x_max":1169,"o":"m 543 -24 q 169 421 169 -24 q 180 524 169 456 q 190 626 190 593 q 160 696 190 681 l 103 689 q 58 568 61 646 q 68 436 58 554 l 40 426 q 15 581 15 524 q 44 743 15 663 q 153 849 85 849 q 256 724 256 849 q 232 571 256 671 q 208 421 208 471 q 589 167 208 167 q 844 196 763 167 q 979 390 979 246 q 878 600 979 543 q 642 643 803 643 q 885 856 707 856 q 1169 371 1169 856 l 1169 -11 l 1124 -7 l 1131 171 q 938 692 1126 692 q 872 663 907 692 q 980 556 938 636 q 1022 400 1022 475 q 885 79 1022 190 q 543 -24 760 -24 m 521 554 q 538 -111 511 0 q 660 -278 564 -222 l 789 -289 q 1033 -160 913 -257 l 1060 -160 q 864 -376 997 -306 q 554 -328 660 -440 q 471 -86 478 -207 q 463 210 457 57 q 483 531 468 363 l 521 554 z "},"ᭊ":{"ha":1339,"x_min":17,"x_max":1240,"o":"m 65 51 q 85 45 75 49 q 104 39 94 42 q 283 269 169 39 q 222 276 261 269 q 106 206 147 276 q 65 51 65 136 m 79 -24 q 17 83 17 -24 q 110 326 17 224 q 342 429 203 429 q 385 608 385 533 q 293 713 385 713 q 65 429 182 713 l 39 435 q 147 699 72 582 q 361 856 242 856 q 436 796 407 856 q 460 699 460 751 q 390 413 460 660 q 599 260 450 393 q 814 143 726 143 q 1022 406 1022 143 q 1004 576 1022 464 q 986 744 986 689 q 1044 858 986 832 q 1218 663 1172 819 q 1240 390 1240 575 l 1240 -26 l 1192 -26 q 1195 99 1192 15 q 1199 224 1199 182 q 1189 490 1199 422 q 1078 706 1165 679 q 1054 663 1054 682 q 1065 574 1054 633 q 1075 481 1075 514 q 697 -24 1075 -24 q 508 93 632 -24 q 329 260 417 175 q 238 81 257 110 q 79 -24 169 -24 m 643 543 q 660 -122 633 -11 q 782 -289 686 -233 l 911 -300 q 1054 -218 929 -306 l 1081 -218 q 986 -387 1008 -369 q 676 -339 782 -451 q 593 -97 600 -218 q 585 199 579 46 q 606 519 590 351 l 643 543 z "},"ᭋ":{"ha":2876,"x_min":151,"x_max":2696,"o":"m 200 51 q 219 45 210 49 q 239 39 229 42 q 418 269 304 39 q 357 276 396 269 q 241 206 282 276 q 200 51 200 136 m 1336 90 l 1336 224 q 1324 490 1333 422 q 1213 706 1300 679 q 1189 663 1189 682 q 1199 574 1189 633 q 1210 481 1210 514 q 832 -24 1210 -24 q 643 93 767 -24 q 464 260 551 175 q 372 81 392 110 q 214 -24 304 -24 q 151 83 151 -24 q 244 326 151 224 q 476 429 338 429 q 519 608 519 533 q 428 713 519 713 q 200 429 317 713 l 174 435 q 282 699 207 582 q 496 856 376 856 q 571 796 542 856 q 594 699 594 751 q 525 413 594 660 q 733 260 585 393 q 949 143 861 143 q 1157 406 1157 143 q 1139 576 1157 464 q 1121 744 1121 689 q 1179 858 1121 832 q 1353 663 1307 819 q 1375 390 1375 575 l 1375 332 q 1418 198 1375 256 q 1547 147 1461 140 q 1813 372 1715 147 q 1892 742 1892 547 q 1985 776 1940 767 q 2286 154 1985 154 q 2479 431 2479 154 q 2459 579 2479 482 q 2439 725 2439 676 q 2508 858 2439 858 q 2696 360 2696 858 l 2696 -24 l 2647 -24 q 2650 33 2647 -31 q 2650 164 2650 103 q 2536 710 2650 676 l 2508 683 q 2522 495 2508 621 q 2536 303 2536 369 q 2482 86 2536 174 q 2296 -21 2417 -21 q 2024 232 2108 -21 q 1943 642 1994 317 l 1933 639 q 1543 -24 1807 -24 q 1336 90 1353 -24 z "},"᭐":{"ha":704,"x_min":97,"x_max":610,"o":"m 338 221 q 488 271 425 221 q 551 407 551 321 q 504 542 551 472 q 396 611 457 611 q 157 407 157 611 q 210 278 157 335 q 338 221 264 221 m 97 414 q 157 644 97 557 q 357 753 225 753 q 547 639 478 753 q 610 414 610 540 q 547 190 610 286 q 353 78 475 78 q 160 190 233 78 q 97 414 97 286 z "},"᭑":{"ha":1933,"x_min":29,"x_max":1849,"o":"m 1428 1014 l 1411 965 q 1592 853 1411 853 q 1479 1035 1558 1035 q 1428 1014 1457 1025 m 181 335 q 193 470 181 382 q 206 601 206 558 q 181 686 206 632 q 81 556 81 686 q 88 456 81 542 l 44 447 q 29 614 29 586 q 60 760 29 696 q 169 844 99 844 q 275 714 275 844 q 252 528 275 653 q 229 340 229 404 q 393 61 229 61 q 321 375 321 186 q 385 696 321 568 q 647 858 469 858 q 869 597 810 858 q 1118 856 982 856 q 1443 450 1443 856 q 1364 100 1443 276 q 1600 463 1604 100 l 1600 732 q 1431 819 1513 740 q 1349 981 1349 899 q 1393 1053 1349 1025 q 1482 1081 1438 1081 q 1594 996 1558 1081 q 1633 850 1604 969 q 1797 947 1754 856 l 1829 965 l 1839 960 q 1849 926 1849 929 q 1774 804 1849 871 q 1640 732 1699 738 q 1649 463 1649 467 q 1600 97 1649 179 q 1264 -24 1525 -24 l 1228 -24 q 1388 389 1388 204 q 1321 585 1388 499 q 1143 672 1254 672 q 976 632 1036 672 q 869 499 933 601 q 631 656 790 656 q 372 365 372 656 q 493 -24 372 194 q 181 335 181 -24 z "},"᭒":{"ha":1647,"x_min":22,"x_max":1626,"o":"m 893 -1490 q 1313 -576 1151 -1044 q 869 -449 1146 -576 q 490 -321 593 -321 q 311 -375 394 -321 q 211 -522 211 -433 q 389 -874 211 -735 q 717 -1104 554 -990 q 893 -1490 893 -1256 m 717 -1671 q 850 -1400 850 -1565 q 675 -1132 850 -1261 q 339 -897 506 -1012 q 164 -561 164 -747 q 319 -289 164 -396 q 632 -194 457 -194 q 997 -335 779 -194 q 1325 -493 1233 -482 q 1407 244 1407 -207 q 1125 668 1407 668 q 869 497 935 668 q 618 665 788 665 q 428 574 494 665 q 361 351 361 482 q 519 -24 361 183 q 244 58 324 -24 q 182 268 182 124 q 192 431 182 317 q 203 606 203 546 q 175 679 203 647 l 167 686 q 71 572 71 686 q 75 510 71 550 q 79 458 79 469 l 35 451 q 22 594 22 514 q 51 753 22 679 q 161 849 88 849 q 265 650 265 849 q 244 497 265 597 q 222 343 222 396 q 386 61 222 61 l 392 71 q 317 369 317 235 q 386 683 317 546 q 628 857 471 857 q 869 589 833 857 q 994 792 953 753 q 1224 857 1068 857 q 1414 628 1350 857 q 1456 286 1456 467 q 1386 -501 1456 -1 q 1603 -429 1506 -501 l 1626 -456 q 1364 -572 1558 -525 q 1125 -1167 1221 -965 q 779 -1699 971 -1486 l 717 -1671 z "},"᭓":{"ha":1721,"x_min":108,"x_max":1581,"o":"m 1403 -1675 q 1468 -1422 1468 -1533 q 896 -1040 1468 -1040 q 600 -1151 721 -1040 q 479 -1435 479 -1262 q 524 -1654 479 -1517 q 218 -1445 328 -1604 q 108 -1082 108 -1286 q 479 -496 108 -654 q 1168 -289 821 -392 q 1539 281 1539 -132 q 1265 672 1539 672 q 1014 497 1126 672 q 800 656 913 656 q 565 549 631 656 q 518 286 518 468 q 558 122 518 213 q 657 -15 599 32 l 654 -22 q 393 69 468 -22 q 335 286 335 140 q 343 435 335 335 q 351 585 351 536 q 310 685 351 653 q 218 560 218 688 q 225 458 218 542 l 197 451 q 176 593 176 542 q 325 842 176 842 q 372 805 339 842 q 406 753 406 768 q 389 538 406 682 q 372 322 372 393 q 465 69 372 163 l 510 58 l 539 69 q 465 385 465 247 q 526 667 465 510 q 701 857 601 857 q 1017 578 975 857 q 1254 851 1117 851 q 1581 376 1581 851 q 1210 -425 1581 -210 q 521 -631 868 -526 q 150 -1096 150 -749 q 449 -1553 150 -1440 l 443 -1443 q 567 -1037 429 -1203 q 949 -871 706 -871 q 1328 -1007 1153 -871 q 1515 -1351 1515 -1153 q 1429 -1686 1515 -1565 l 1403 -1675 z "},"᭔":{"ha":853,"x_min":81,"x_max":793,"o":"m 179 628 q 167 475 163 551 q 429 133 186 154 q 560 133 450 126 q 714 290 714 133 q 393 415 714 415 q 403 464 393 415 q 576 488 531 464 q 642 638 642 524 q 608 687 642 661 q 547 713 574 713 q 364 575 413 713 l 331 575 q 518 857 367 857 q 661 815 596 857 q 726 697 726 772 q 697 565 726 618 q 615 461 688 549 q 793 186 793 408 q 706 33 793 90 q 518 -24 619 -24 q 97 453 131 -12 q 186 857 81 601 l 232 929 l 308 949 q 300 934 308 949 q 281 903 292 919 q 261 872 271 886 q 250 857 251 857 q 242 836 250 857 q 226 790 235 815 q 210 744 217 765 q 203 724 203 724 l 179 628 z "},"᭕":{"ha":936,"x_min":0,"x_max":844,"o":"m 844 -836 q 683 -364 683 -761 q 721 14 683 -237 q 758 393 758 265 q 674 715 758 592 q 381 856 575 856 q 138 751 232 856 q 44 496 44 647 q 331 132 44 132 q 511 268 511 132 q 403 353 511 339 q 246 347 421 347 l 251 399 q 393 406 365 399 q 485 496 485 424 q 451 565 485 532 q 383 599 418 599 q 225 518 306 599 l 196 526 q 257 663 206 601 q 381 725 308 725 q 502 669 457 725 q 547 539 547 614 q 451 393 547 449 q 575 169 575 310 q 497 31 575 86 q 333 -24 418 -24 q 72 128 161 -24 q 0 436 0 251 q 92 781 0 636 q 390 942 196 942 q 800 393 800 942 q 768 11 800 265 q 736 -369 736 -243 q 844 -824 736 -657 l 844 -836 z "},"᭖":{"ha":1240,"x_min":74,"x_max":1236,"o":"m 1207 -24 q 996 196 1156 119 q 692 264 860 264 q 332 42 400 264 q 144 151 222 42 q 74 365 74 249 q 290 738 74 604 q 731 857 472 847 l 731 815 q 329 708 497 806 q 122 375 122 589 q 171 196 122 278 q 313 96 222 100 q 725 429 394 429 q 1074 307 922 429 q 1236 -21 1236 174 l 1207 -24 z "},"᭗":{"ha":1733,"x_min":33,"x_max":1656,"o":"m 1188 944 q 1265 863 1188 893 q 1390 839 1325 839 q 1351 953 1390 896 q 1260 1010 1313 1010 q 1206 985 1214 1010 l 1188 944 m 1113 -24 q 900 156 936 -24 q 869 488 888 319 q 651 667 835 667 q 435 556 494 667 q 396 300 396 476 q 533 -18 396 185 l 453 -24 q 210 351 210 -24 q 215 503 210 408 q 221 628 221 599 q 194 693 221 660 l 161 700 l 111 669 q 89 568 86 614 q 99 464 93 515 l 60 450 q 33 628 33 568 q 79 789 33 715 q 210 863 125 863 q 263 824 239 863 q 286 753 286 785 q 268 536 286 679 q 250 319 250 393 q 278 160 250 229 q 396 68 318 68 l 417 71 q 340 401 340 232 q 406 688 340 544 q 613 857 485 857 q 888 672 835 857 q 929 333 911 503 q 1146 150 965 150 q 1381 238 1315 150 q 1438 490 1438 313 q 1414 711 1438 589 q 1129 928 1129 711 q 1253 1063 1129 1063 q 1440 843 1354 1063 q 1633 976 1513 857 l 1656 949 q 1458 722 1601 761 q 1476 467 1476 510 q 1113 -24 1476 -24 z "},"᭘":{"ha":1196,"x_min":14,"x_max":1101,"o":"m 638 1086 q 611 1035 611 1047 q 676 967 611 993 q 781 947 728 947 q 839 957 810 947 q 676 1100 774 1100 q 657 1093 667 1096 q 638 1086 647 1090 m 174 372 q 185 509 174 418 q 196 649 196 600 q 154 710 196 710 q 65 593 65 710 l 82 440 l 43 431 q 14 619 14 542 q 43 772 14 704 q 157 856 82 856 q 264 739 264 856 q 243 593 264 690 q 222 444 222 496 q 572 171 222 171 q 951 544 951 171 q 900 811 951 675 l 829 804 q 640 863 718 804 q 553 1032 553 928 q 713 1149 553 1149 q 888 974 774 1149 q 1065 1174 1017 1038 l 1075 1181 l 1094 1158 q 1098 1135 1094 1151 q 1101 1110 1101 1119 q 939 840 1101 944 q 1011 467 1011 681 q 907 93 1011 210 q 553 -24 803 -24 q 277 88 381 -24 q 174 372 174 200 z "},"᭙":{"ha":1579,"x_min":32,"x_max":1467,"o":"m 1154 932 q 1210 944 1213 944 q 1046 1072 1128 1072 q 1028 1067 1040 1069 q 1010 1063 1017 1065 l 1004 1007 q 1069 951 1026 961 q 1154 932 1096 942 m 107 224 q 164 448 107 303 q 221 668 221 593 l 199 707 l 139 697 q 71 439 88 651 q 54 439 68 439 q 39 436 44 436 q 32 508 32 482 q 64 724 32 632 q 204 857 110 857 q 310 743 310 857 q 249 547 310 681 q 189 339 189 414 q 236 208 189 264 q 354 153 283 153 q 719 750 613 153 l 769 775 q 831 381 808 443 q 1125 165 906 165 q 1281 299 1229 165 q 1321 524 1321 397 q 1275 799 1321 644 q 1196 785 1222 785 q 1005 858 1075 785 q 935 1053 935 932 q 960 1107 935 1079 q 1007 1135 985 1135 q 1160 1092 1106 1135 q 1256 961 1200 1060 q 1438 1147 1340 968 q 1467 1079 1467 1125 q 1321 821 1467 944 q 1372 475 1372 600 q 1304 153 1372 289 q 1050 -24 1215 -24 q 743 619 828 -24 q 622 221 656 296 q 335 -24 511 -24 q 167 47 228 -24 q 107 224 107 117 z "},"᭚":{"ha":2049,"x_min":1,"x_max":1971,"o":"m 1522 435 q 1356 694 1522 694 q 1213 507 1233 694 q 1189 164 1203 336 q 1003 -24 1153 -24 q 776 164 819 -24 q 760 504 769 333 q 642 690 750 690 q 465 507 501 690 q 431 167 449 336 q 256 -17 397 -17 q 35 118 89 -17 q 1 396 1 200 l 72 406 q 89 225 83 249 q 231 140 119 140 q 381 425 381 140 q 381 511 381 461 q 378 579 378 563 q 442 776 378 694 q 617 857 506 857 q 813 674 774 857 q 826 373 826 610 q 979 136 826 136 q 1097 183 1019 136 q 1139 372 1132 251 l 1136 360 l 1136 572 q 1179 763 1136 688 q 1339 857 1233 857 q 1601 464 1601 857 q 1592 272 1601 393 q 1582 111 1582 150 q 1725 -164 1582 -164 q 1879 -76 1846 -164 q 1896 115 1896 -33 l 1964 126 l 1971 10 q 1725 -321 1971 -321 q 1510 108 1510 -321 q 1516 295 1510 181 q 1522 435 1522 410 z "},"᭛":{"ha":2379,"x_min":132,"x_max":2311,"o":"m 311 571 q 265 694 311 694 q 174 606 190 694 q 171 457 174 531 l 151 453 q 132 619 132 564 q 297 838 132 838 q 367 763 333 804 q 352 564 367 697 q 338 363 338 431 q 435 72 338 179 l 481 63 l 500 69 q 435 407 435 264 q 493 704 435 581 q 728 853 571 860 q 903 782 854 847 q 975 600 929 749 l 988 606 q 1082 782 1040 733 q 1261 857 1150 857 q 1567 297 1567 857 q 1563 146 1567 249 q 1560 -8 1560 43 l 1508 -8 q 1511 136 1508 40 q 1514 278 1514 232 q 1247 678 1514 678 q 1090 637 1143 678 q 985 499 1036 596 l 971 501 q 743 668 915 668 q 483 378 483 668 q 626 -8 483 135 q 590 -22 600 -22 q 353 69 418 -22 q 301 290 301 140 q 306 429 301 333 q 311 571 311 525 m 1804 -321 q 1918 -393 1882 -367 q 1922 -188 1918 -325 q 1925 21 1925 -51 l 1925 242 q 1788 642 1925 606 q 1804 392 1804 603 l 1804 -321 m 243 -1118 q 444 -306 243 -786 l 486 -325 q 301 -997 301 -650 q 658 -1515 301 -1515 q 861 -1348 786 -1515 q 1046 -1181 936 -1181 q 1203 -1262 1164 -1181 q 1281 -1421 1242 -1343 q 1511 -1506 1346 -1506 q 1719 -1399 1668 -1506 q 1751 -1154 1751 -1329 l 1751 -493 q 1504 -406 1593 -406 q 1418 -432 1465 -406 q 1371 -497 1371 -458 q 1440 -681 1371 -562 q 1508 -897 1508 -800 q 1432 -1017 1508 -956 q 1297 -1079 1356 -1079 q 1046 -917 1143 -1079 q 975 -617 961 -774 l 981 -533 l 1014 -536 q 1264 -926 1029 -926 q 1417 -744 1417 -926 q 1372 -660 1417 -737 q 1326 -519 1326 -582 q 1421 -337 1326 -406 q 1625 -279 1504 -279 q 1751 -301 1693 -279 l 1751 431 q 1658 860 1751 674 q 1950 606 1889 843 q 1979 164 1969 525 l 1979 -442 q 2211 -849 2149 -667 q 2311 -1307 2243 -946 l 2269 -1319 q 2175 -965 2257 -1161 q 1976 -667 2088 -747 l 1976 -1694 l 1918 -1694 l 1918 -607 q 1804 -519 1869 -562 l 1804 -1281 q 1765 -1574 1807 -1492 q 1514 -1694 1703 -1694 q 1326 -1606 1394 -1694 q 1222 -1440 1274 -1525 q 1056 -1353 1157 -1353 q 871 -1440 936 -1353 q 779 -1606 825 -1522 q 617 -1694 721 -1694 q 243 -1118 243 -1694 z "},"᭜":{"ha":704,"x_min":97,"x_max":610,"o":"m 338 221 q 488 271 425 221 q 551 407 551 321 q 504 542 551 472 q 396 611 457 611 q 157 407 157 611 q 210 278 157 335 q 338 221 264 221 m 97 414 q 157 644 97 557 q 357 753 225 753 q 547 639 478 753 q 610 414 610 540 q 547 190 610 286 q 353 78 475 78 q 160 190 233 78 q 97 414 97 286 z "},"᭝":{"ha":832,"x_min":138,"x_max":624,"o":"m 138 604 q 263 738 138 738 q 364 636 314 738 q 332 608 356 622 l 307 625 q 254 644 272 644 q 207 626 231 644 q 267 581 207 581 q 583 743 494 581 l 624 747 q 506 552 610 631 q 281 474 401 474 q 138 604 138 474 m 272 89 q 138 224 138 89 q 263 353 138 353 q 365 256 314 353 q 336 228 356 238 q 258 261 281 256 q 207 242 226 261 q 286 200 207 200 q 466 244 378 200 q 592 363 554 289 l 624 363 q 501 167 610 246 q 272 89 393 89 z "},"᭞":{"ha":989,"x_min":0,"x_max":572,"o":"m 536 -599 q 108 650 443 149 l 28 533 l 0 569 l 124 925 l 138 925 q 443 204 338 628 q 572 -572 515 -79 l 536 -599 z "},"᭟":{"ha":1306,"x_min":0,"x_max":889,"o":"m 850 -594 q 494 657 783 139 l 419 546 l 401 549 l 389 567 l 531 925 q 796 199 714 618 q 889 -576 838 -12 l 850 -594 m 533 -597 q 106 642 419 186 l 31 528 l 0 564 l 124 915 l 136 915 q 440 201 335 621 q 567 -569 515 -97 l 533 -597 z "},"᭠":{"ha":628,"x_min":69,"x_max":561,"o":"m 286 -24 q 69 350 86 -24 l 99 350 q 168 193 128 235 q 328 133 219 133 q 482 290 482 133 q 161 415 482 415 q 171 464 161 415 q 344 488 299 464 q 410 638 410 524 q 376 687 410 661 q 315 713 342 713 q 132 575 181 713 l 99 575 q 286 857 135 857 q 429 815 364 857 q 494 697 494 772 q 465 565 494 618 q 383 461 456 549 q 561 186 561 408 q 474 33 561 90 q 286 -24 388 -24 z "},"᭡":{"ha":1026,"x_min":0,"x_max":928,"o":"m 600 -24 q 471 54 471 -24 q 561 197 471 197 q 636 145 590 197 q 724 93 682 93 q 850 168 801 93 q 889 314 889 229 q 711 608 889 511 q 354 683 571 683 q 10 603 178 683 l 0 618 q 432 856 149 856 q 785 703 642 856 q 928 340 928 550 q 769 22 928 115 l 772 18 q 600 -24 682 -24 z "},"᭢":{"ha":940,"x_min":0,"x_max":878,"o":"m 633 -1240 q 563 -911 563 -1079 q 678 -295 563 -700 q 793 317 793 110 q 711 557 793 460 q 489 654 629 654 q 207 290 207 654 l 132 264 q 0 757 132 524 l 71 732 q 161 507 86 703 l 175 511 q 507 857 247 857 q 793 721 693 857 q 878 407 878 603 q 758 -215 878 196 q 638 -839 638 -625 q 701 -1172 638 -1015 l 633 -1240 z "},"᭣":{"ha":690,"x_min":0,"x_max":633,"o":"m 0 -531 l 0 -501 q 122 -153 0 -379 q 358 267 240 56 q 503 728 490 529 l 532 718 q 413 267 528 524 q 201 -146 307 63 q 90 -479 90 -367 q 176 -517 90 -517 q 468 14 333 -517 q 588 675 576 431 l 589 693 q 596 914 592 721 l 633 914 l 633 847 q 554 -37 633 350 q 122 -671 426 -671 q 7 -581 25 -671 l 0 -531 z "},"᭤":{"ha":701,"x_min":0,"x_max":696,"o":"m 667 38 q 456 389 599 188 q 175 639 269 651 q 39 467 126 607 l 0 479 q 165 854 61 682 l 189 857 q 504 513 342 796 q 696 64 640 272 l 667 38 z "},"᭥":{"ha":890,"x_min":15,"x_max":890,"o":"m 15 857 l 133 824 q 383 307 203 506 q 890 64 588 83 l 881 38 q 290 276 539 38 q 15 857 42 515 z "},"᭦":{"ha":1083,"x_min":26,"x_max":974,"o":"m 465 39 q 26 368 228 126 l 67 408 q 247 222 178 275 q 178 481 178 339 q 287 753 178 649 q 565 857 396 857 q 862 749 750 857 q 974 454 974 640 q 693 39 974 169 l 661 83 q 908 386 908 194 q 583 675 908 675 q 250 411 250 675 q 326 213 250 293 q 503 83 360 179 q 465 39 492 39 z "},"᭧":{"ha":1347,"x_min":6,"x_max":1347,"o":"m 286 301 q 990 857 578 857 q 1347 692 1208 857 l 1347 679 l 504 349 l 488 385 l 1119 665 q 885 721 1057 721 q 319 282 660 721 l 286 301 m 339 38 q 6 375 118 229 l 72 444 q 217 256 144 351 q 379 83 303 150 q 339 38 372 40 z "},"᭨":{"ha":501,"x_min":1,"x_max":501,"o":"m 1 -711 q 401 -86 401 -344 q 278 71 401 -15 q 108 201 121 176 l 94 296 q 153 583 92 415 q 268 857 211 718 l 300 844 q 185 447 185 544 q 343 265 185 367 q 501 71 501 164 q 11 -728 501 -317 l 1 -711 z "},"᭩":{"ha":2349,"x_min":129,"x_max":2164,"o":"m 1456 -1090 q 1697 -1274 1475 -1290 q 1904 -1147 1853 -1254 q 1936 -903 1936 -1078 l 1936 682 q 1843 1111 1936 925 q 2135 857 2074 1094 q 2164 415 2154 776 l 2164 -1443 l 2103 -1443 l 2103 -356 q 2106 63 2103 -74 q 2110 272 2110 200 l 2110 493 q 1972 893 2110 857 q 1989 643 1989 854 l 1989 -1029 q 1950 -1322 1992 -1240 q 1699 -1443 1888 -1443 q 1511 -1365 1579 -1443 q 1419 -1172 1451 -1293 q 936 -806 1376 -801 q 624 -914 746 -806 q 503 -1210 503 -1022 q 549 -1425 503 -1287 q 238 -1212 353 -1376 q 129 -851 129 -1058 q 503 -249 129 -408 q 1199 -42 851 -146 q 1572 533 1572 110 q 1300 926 1572 926 q 1044 753 1150 926 q 963 857 979 842 q 847 910 910 910 q 594 811 661 910 q 543 536 543 733 q 681 231 543 363 l 676 228 q 418 310 490 228 q 358 519 358 379 q 367 669 358 565 q 375 825 375 772 q 329 943 375 907 q 240 811 240 946 q 247 710 240 792 l 214 703 q 194 847 194 796 q 349 1097 194 1097 q 397 1061 363 1097 q 431 1013 431 1025 q 413 794 431 940 q 394 572 394 647 q 490 317 394 411 l 536 310 l 563 317 q 486 635 486 497 q 546 919 486 772 q 736 1100 621 1100 q 1047 832 1001 1100 q 1288 1107 1126 1107 q 1615 632 1615 1107 q 1242 -172 1615 47 q 543 -392 893 -285 q 168 -865 168 -514 q 247 -1143 168 -1019 q 471 -1324 332 -1282 l 464 -1210 q 592 -799 450 -967 q 979 -632 733 -632 q 1314 -751 1117 -631 q 1456 -1090 1418 -843 z "},"᭪":{"ha":543,"x_min":7,"x_max":518,"o":"m 299 -1700 q 178 -1229 178 -1489 q 305 -676 178 -1036 q 432 -126 432 -315 q 335 153 432 61 q 53 254 246 231 l 89 343 q 197 326 171 326 q 417 556 417 326 q 356 644 417 608 q 236 679 294 679 q 96 618 132 679 q 63 461 69 576 l 26 457 q 7 563 7 507 q 79 767 7 676 q 261 857 151 857 q 508 596 508 857 q 261 276 508 349 q 518 -224 518 160 q 392 -810 518 -426 q 265 -1390 265 -1193 q 324 -1678 265 -1562 l 299 -1700 z "},"᭫":{"ha":458,"x_min":92,"x_max":376,"o":"m 357 1264 l 331 1236 l 282 1222 l 229 1238 l 188 1264 l 161 1303 l 175 1251 l 197 1222 l 243 1194 l 299 1183 l 351 1199 l 376 1222 q 327 1142 365 1174 q 236 1110 289 1110 q 133 1151 175 1110 q 92 1254 92 1193 q 133 1357 92 1315 q 236 1399 175 1399 q 322 1372 285 1399 q 372 1300 358 1344 l 357 1264 z "},"᭬":{"ha":458,"x_min":92,"x_max":376,"o":"m 372 -1568 q 322 -1640 358 -1612 q 236 -1667 285 -1667 q 133 -1625 175 -1667 q 92 -1522 92 -1583 q 133 -1419 92 -1461 q 236 -1378 175 -1378 q 327 -1410 289 -1378 q 376 -1490 365 -1442 l 351 -1467 l 299 -1451 l 243 -1462 l 197 -1490 l 175 -1519 l 161 -1571 l 188 -1532 l 229 -1506 l 282 -1490 l 331 -1504 l 357 -1532 l 372 -1568 z "},"᭭":{"ha":781,"x_min":0,"x_max":781,"o":"m 361 1183 q 0 1251 144 1188 l 1 1257 l 147 1300 q 365 1238 244 1256 q 331 1515 368 1390 l 269 1456 l 261 1475 l 390 1656 l 397 1656 q 419 1289 443 1504 q 411 1231 417 1261 q 781 1235 575 1211 l 764 1214 q 403 1183 542 1186 q 340 893 382 1063 l 317 879 q 361 1183 356 1043 z "},"᭮":{"ha":851,"x_min":71,"x_max":851,"o":"m 835 1211 q 432 1181 578 1179 q 71 1249 215 1185 l 72 1254 l 218 1297 q 851 1232 463 1189 l 835 1211 z "},"᭯":{"ha":933,"x_min":0,"x_max":928,"o":"m 542 1242 q 928 785 660 975 l 886 778 q 460 1125 593 979 q 42 844 272 1001 l 0 853 q 408 1308 219 1006 l 542 1242 z "},"᭰":{"ha":931,"x_min":0,"x_max":928,"o":"m 550 1186 q 928 750 669 932 l 886 743 q 469 1122 604 936 q 418 893 450 1022 l 394 879 q 435 1117 424 1006 q 42 810 258 957 l 0 818 q 386 1185 196 954 q 78 1251 204 1194 l 79 1257 l 225 1300 q 443 1238 322 1256 q 408 1515 446 1390 l 347 1456 l 339 1475 l 468 1656 l 475 1656 q 497 1289 521 1504 q 489 1231 494 1261 q 858 1235 653 1211 l 842 1214 q 550 1186 671 1192 z "},"᭱":{"ha":943,"x_min":7,"x_max":935,"o":"m 496 1231 q 865 1235 660 1211 l 849 1214 q 557 1186 678 1192 q 935 750 676 932 l 893 743 q 463 1136 611 936 q 49 810 265 957 l 7 818 q 393 1185 203 954 q 85 1251 211 1194 l 86 1257 l 232 1300 q 496 1231 329 1256 z "},"᭲":{"ha":1015,"x_min":10,"x_max":1000,"o":"m 518 833 q 10 1292 268 1158 l 72 1415 q 518 922 358 1092 q 929 1431 653 1107 l 1000 1257 q 518 833 799 1242 z "},"᭳":{"ha":629,"x_min":89,"x_max":542,"o":"m 89 1288 q 107 1375 89 1333 q 156 1447 125 1417 q 228 1496 186 1478 q 315 1514 269 1514 q 403 1496 361 1514 q 475 1447 444 1478 q 524 1375 506 1417 q 542 1288 542 1333 q 524 1200 542 1242 q 475 1128 506 1158 q 403 1079 444 1097 q 315 1061 361 1061 q 228 1079 269 1061 q 156 1128 186 1097 q 107 1200 125 1158 q 89 1288 89 1242 m 179 1289 q 219 1191 179 1231 q 317 1151 258 1151 q 415 1191 375 1151 q 456 1289 456 1231 q 415 1388 456 1347 q 317 1428 375 1428 q 219 1388 258 1428 q 179 1289 179 1347 m 258 1267 q 277 1316 258 1296 q 325 1336 296 1336 q 374 1316 354 1336 q 394 1267 394 1296 q 374 1219 394 1238 q 325 1200 354 1200 q 277 1219 296 1200 q 258 1267 258 1238 z "},"᭴":{"ha":1124,"x_min":42,"x_max":1083,"o":"m 563 857 q 892 513 729 796 q 1083 64 1028 272 l 1007 0 q 843 389 978 171 q 563 646 657 651 q 282 389 468 651 q 103 0 151 171 l 42 64 q 233 513 97 272 q 563 857 396 796 z "},"᭵":{"ha":968,"x_min":96,"x_max":876,"o":"m 463 125 q 692 201 596 125 q 789 408 789 276 q 716 614 789 508 q 550 719 643 719 q 188 408 188 719 q 268 212 188 299 q 463 125 349 125 m 96 421 q 188 771 96 638 q 492 936 290 936 q 782 763 675 936 q 876 421 876 611 q 782 79 876 225 q 485 -93 672 -93 q 190 79 303 -93 q 96 421 96 225 z "},"᭶":{"ha":1229,"x_min":151,"x_max":1229,"o":"m 551 546 q 721 383 644 433 l 711 338 q 492 475 624 357 q 428 389 461 436 q 249 0 297 171 l 188 64 q 379 513 243 272 q 404 557 392 536 q 385 578 394 568 q 151 1133 178 792 l 269 1100 q 465 649 329 832 q 708 857 586 813 q 1038 513 875 796 q 1229 64 1174 272 l 1153 0 q 989 389 1124 171 q 708 646 803 651 q 551 546 647 650 l 551 546 z "},"᭷":{"ha":958,"x_min":71,"x_max":936,"o":"m 372 667 q 439 583 403 622 q 640 383 551 442 l 631 338 q 304 578 511 364 q 293 590 297 585 q 247 408 247 519 q 328 212 247 299 q 522 125 408 125 q 752 201 656 125 q 849 408 849 276 q 776 614 849 508 q 610 719 703 719 q 372 667 460 719 m 283 819 q 551 936 382 936 q 842 763 735 936 q 936 421 936 611 q 842 79 936 225 q 544 -93 732 -93 q 250 79 363 -93 q 156 421 156 225 q 208 701 156 585 q 71 1133 90 882 l 189 1100 q 283 819 222 944 z "},"᭸":{"ha":1599,"x_min":188,"x_max":1478,"o":"m 1449 274 q 188 274 469 285 l 188 463 q 1478 439 833 425 l 1449 274 z "},"᭹":{"ha":1449,"x_min":0,"x_max":1364,"o":"m 1296 888 l 260 56 l 1357 56 l 1364 -82 l 21 -82 l 0 -24 l 1222 983 l 1296 888 z "},"᭺":{"ha":1272,"x_min":0,"x_max":1272,"o":"m 636 435 q 1272 443 939 424 l 1249 278 q 771 274 969 269 q 938 117 863 167 l 928 71 q 635 276 818 96 q 592 278 614 276 q 0 274 254 281 l 0 463 q 510 439 296 443 q 368 867 386 640 l 486 833 q 636 435 533 615 z "},"᭻":{"ha":1428,"x_min":38,"x_max":1401,"o":"m 758 426 l 297 56 l 1394 56 l 1401 -82 l 58 -82 l 38 -24 l 678 506 q 439 1067 465 725 l 557 1033 q 760 572 617 758 l 1260 983 l 1333 888 l 832 485 q 1008 317 929 368 l 999 271 q 758 426 904 292 z "},"᭼":{"ha":549,"x_min":92,"x_max":461,"o":"m 92 363 q 106 434 92 400 q 146 493 121 468 q 205 533 171 518 q 276 547 239 547 q 348 533 314 547 q 407 493 382 518 q 447 434 432 468 q 461 363 461 400 q 447 291 461 325 q 407 232 432 257 q 348 192 382 207 q 276 178 314 178 q 205 192 239 178 q 146 232 171 207 q 106 291 121 257 q 92 363 92 325 z "},"(":{"ha":689,"x_min":17,"x_max":689,"o":"m 689 1938 q 300 1304 456 1733 q 153 569 153 911 q 221 206 153 363 q 344 8 261 115 q 413 -112 413 -76 q 378 -200 413 -161 q 296 -239 344 -239 q 69 18 143 -239 q 17 394 17 190 q 182 1282 17 826 q 689 2003 378 1811 l 689 1938 z "},")":{"ha":688,"x_min":0,"x_max":671,"o":"m 0 1994 q 506 1274 311 1804 q 671 390 671 821 q 619 14 671 188 q 390 -240 544 -240 q 308 -202 343 -240 q 274 -114 274 -164 q 343 4 274 -79 q 468 203 426 111 q 535 567 535 358 q 388 1297 535 906 q 0 1931 233 1724 l 0 1994 z "},"\"":{"ha":749,"x_min":132,"x_max":626,"o":"m 164 367 l 164 404 q 268 603 268 486 q 244 657 268 635 q 193 642 229 647 q 132 738 132 642 q 156 815 132 776 q 215 854 181 854 q 300 783 268 854 q 326 664 326 725 q 164 367 326 433 m 465 367 l 465 404 q 568 599 568 486 q 549 657 568 638 l 497 642 q 436 742 436 657 q 517 854 436 854 q 601 781 572 854 q 626 657 626 718 q 465 367 626 433 z "},"'":{"ha":304,"x_min":64,"x_max":258,"o":"m 97 365 l 97 407 q 200 601 200 494 q 190 647 200 608 l 178 657 q 129 644 151 644 q 64 738 64 644 q 88 815 64 776 q 149 854 113 854 q 233 783 204 854 q 258 664 258 728 q 97 365 258 436 z "},"*":{"ha":457,"x_min":11,"x_max":447,"o":"m 218 379 q 182 542 218 447 l 199 586 l 233 603 l 267 586 l 279 542 q 247 379 272 525 q 364 489 286 418 q 406 496 389 496 q 447 450 447 496 q 253 360 447 411 q 425 301 311 340 l 447 257 l 432 224 q 419 219 425 221 q 406 214 413 218 q 247 338 369 214 q 279 169 247 299 q 233 111 260 111 q 182 169 182 111 q 200 251 182 194 q 218 338 218 308 q 92 221 218 338 l 60 214 l 26 231 l 11 257 l 24 289 q 116 329 50 311 q 206 360 182 347 q 94 389 150 376 q 11 457 24 415 l 26 489 l 56 499 l 101 489 q 218 379 121 469 z "},"+":{"ha":749,"x_min":0,"x_max":749,"o":"m 408 814 l 408 464 l 749 464 l 749 389 l 408 389 l 408 42 l 338 42 l 338 389 l 0 389 l 0 464 l 338 464 l 338 814 l 408 814 z "},"-":{"ha":1126,"x_min":188,"x_max":935,"o":"m 935 468 l 935 397 l 188 397 l 188 468 l 935 468 z "},"/":{"ha":906,"x_min":0,"x_max":906,"o":"m 906 1261 l 129 -1039 l 0 -1039 l 779 1261 l 906 1261 z "},"=":{"ha":1322,"x_min":188,"x_max":1311,"o":"m 1311 321 l 1311 231 l 188 231 l 188 321 l 1311 321 m 1311 561 l 1311 469 l 188 469 l 188 561 l 1311 561 z "},"?":{"ha":599,"x_min":31,"x_max":588,"o":"m 406 467 l 386 400 q 321 386 347 386 q 63 646 63 386 q 249 961 63 768 q 435 1264 435 1154 q 254 1449 435 1449 q 50 1315 104 1449 l 31 1446 q 279 1517 121 1517 q 505 1434 422 1517 q 588 1213 588 1351 q 393 865 588 1082 q 199 581 199 649 q 328 457 199 457 q 406 467 364 457 m 163 118 q 283 235 163 235 q 399 118 399 235 q 283 1 399 1 q 163 118 163 1 z "},"@":{"ha":1271,"x_min":89,"x_max":1189,"o":"m 919 588 q 786 94 786 124 q 835 46 786 46 q 1033 201 949 46 q 1104 461 1104 332 q 986 744 1104 636 q 693 851 868 851 q 300 671 453 851 q 147 247 147 490 q 283 -118 147 24 q 644 -260 419 -260 q 1154 92 1004 -260 l 1189 92 q 983 -192 1138 -85 q 640 -299 829 -299 q 244 -137 400 -299 q 89 264 89 24 q 259 703 89 524 q 689 883 429 883 q 1013 762 885 883 q 1140 449 1140 640 q 1050 150 1140 279 q 790 0 949 0 q 696 97 696 0 q 706 182 696 126 q 456 0 550 0 q 373 46 404 0 q 342 146 342 92 q 449 429 342 279 q 689 592 563 592 q 800 504 781 592 l 819 575 l 919 588 m 696 563 q 521 406 608 563 q 443 165 443 267 q 514 78 443 78 q 699 228 615 78 q 776 471 776 361 q 696 563 776 563 z "},"~":{"ha":754,"x_min":140,"x_max":621,"o":"m 599 485 l 621 485 q 504 281 611 281 q 371 338 468 281 q 244 394 274 394 q 167 281 182 394 l 140 281 q 257 485 150 485 q 397 428 306 485 q 517 371 488 371 q 599 485 592 371 z "},"|":{"ha":525,"x_min":188,"x_max":307,"o":"m 188 1129 l 307 1129 l 307 -510 l 188 -510 l 188 1129 z "}}}
